<mxfile host="65bd71144e" compressed="true">
    <diagram id="FcwSsnrYYqSOofXMcQ7t" name="Page-1">
        <mxGraphModel dx="827" dy="718" grid="1" gridSize="10" guides="1" tooltips="1" connect="1" arrows="1" fold="1" page="1" pageScale="1" pageWidth="1654" pageHeight="2336" background="none" math="0" shadow="1">
            <root>
                <mxCell id="0"/>
                <mxCell id="1" parent="0"/>
                <mxCell id="u9htjXkEXDedvNMwMcPZ-1" value="UserLogin" style="shape=table;startSize=30;container=1;collapsible=1;childLayout=tableLayout;fixedRows=1;rowLines=0;fontStyle=1;align=center;resizeLast=1;fillColor=#0050ef;fontColor=#ffffff;strokeColor=#CCE5FF;" parent="1" vertex="1">
                    <mxGeometry x="70" y="270" width="180" height="120" as="geometry"/>
                </mxCell>
                <mxCell id="u9htjXkEXDedvNMwMcPZ-2" value="" style="shape=partialRectangle;collapsible=0;dropTarget=0;pointerEvents=0;fillColor=#0050ef;top=0;left=0;bottom=1;right=0;points=[[0,0.5],[1,0.5]];portConstraint=eastwest;fontColor=#ffffff;strokeColor=#CCE5FF;" parent="u9htjXkEXDedvNMwMcPZ-1" vertex="1">
                    <mxGeometry y="30" width="180" height="30" as="geometry"/>
                </mxCell>
                <mxCell id="u9htjXkEXDedvNMwMcPZ-3" value="PK" style="shape=partialRectangle;connectable=0;fillColor=#0050ef;top=0;left=0;bottom=0;right=0;fontStyle=1;overflow=hidden;fontColor=#ffffff;strokeColor=#CCE5FF;" parent="u9htjXkEXDedvNMwMcPZ-2" vertex="1">
                    <mxGeometry width="30" height="30" as="geometry">
                        <mxRectangle width="30" height="30" as="alternateBounds"/>
                    </mxGeometry>
                </mxCell>
                <mxCell id="u9htjXkEXDedvNMwMcPZ-4" value="user_id" style="shape=partialRectangle;connectable=0;fillColor=#0050ef;top=0;left=0;bottom=0;right=0;align=left;spacingLeft=6;fontStyle=5;overflow=hidden;fontColor=#ffffff;strokeColor=#CCE5FF;" parent="u9htjXkEXDedvNMwMcPZ-2" vertex="1">
                    <mxGeometry x="30" width="150" height="30" as="geometry">
                        <mxRectangle width="150" height="30" as="alternateBounds"/>
                    </mxGeometry>
                </mxCell>
                <mxCell id="u9htjXkEXDedvNMwMcPZ-8" value="" style="shape=partialRectangle;collapsible=0;dropTarget=0;pointerEvents=0;fillColor=#0050ef;top=0;left=0;bottom=0;right=0;points=[[0,0.5],[1,0.5]];portConstraint=eastwest;fontColor=#ffffff;strokeColor=#CCE5FF;" parent="u9htjXkEXDedvNMwMcPZ-1" vertex="1">
                    <mxGeometry y="60" width="180" height="30" as="geometry"/>
                </mxCell>
                <mxCell id="u9htjXkEXDedvNMwMcPZ-9" value="" style="shape=partialRectangle;connectable=0;fillColor=#0050ef;top=0;left=0;bottom=0;right=0;editable=1;overflow=hidden;fontColor=#ffffff;strokeColor=#CCE5FF;" parent="u9htjXkEXDedvNMwMcPZ-8" vertex="1">
                    <mxGeometry width="30" height="30" as="geometry">
                        <mxRectangle width="30" height="30" as="alternateBounds"/>
                    </mxGeometry>
                </mxCell>
                <mxCell id="u9htjXkEXDedvNMwMcPZ-10" value="password_hashÂ " style="shape=partialRectangle;connectable=0;fillColor=#0050ef;top=0;left=0;bottom=0;right=0;align=left;spacingLeft=6;overflow=hidden;fontColor=#ffffff;strokeColor=#CCE5FF;" parent="u9htjXkEXDedvNMwMcPZ-8" vertex="1">
                    <mxGeometry x="30" width="150" height="30" as="geometry">
                        <mxRectangle width="150" height="30" as="alternateBounds"/>
                    </mxGeometry>
                </mxCell>
                <mxCell id="u9htjXkEXDedvNMwMcPZ-11" value="" style="shape=partialRectangle;collapsible=0;dropTarget=0;pointerEvents=0;fillColor=#0050ef;top=0;left=0;bottom=0;right=0;points=[[0,0.5],[1,0.5]];portConstraint=eastwest;fontColor=#ffffff;strokeColor=#CCE5FF;" parent="u9htjXkEXDedvNMwMcPZ-1" vertex="1">
                    <mxGeometry y="90" width="180" height="30" as="geometry"/>
                </mxCell>
                <mxCell id="u9htjXkEXDedvNMwMcPZ-12" value="" style="shape=partialRectangle;connectable=0;fillColor=#0050ef;top=0;left=0;bottom=0;right=0;editable=1;overflow=hidden;fontColor=#ffffff;strokeColor=#CCE5FF;" parent="u9htjXkEXDedvNMwMcPZ-11" vertex="1">
                    <mxGeometry width="30" height="30" as="geometry">
                        <mxRectangle width="30" height="30" as="alternateBounds"/>
                    </mxGeometry>
                </mxCell>
                <mxCell id="u9htjXkEXDedvNMwMcPZ-13" value="last_login" style="shape=partialRectangle;connectable=0;fillColor=#0050ef;top=0;left=0;bottom=0;right=0;align=left;spacingLeft=6;overflow=hidden;fontColor=#ffffff;strokeColor=#CCE5FF;" parent="u9htjXkEXDedvNMwMcPZ-11" vertex="1">
                    <mxGeometry x="30" width="150" height="30" as="geometry">
                        <mxRectangle width="150" height="30" as="alternateBounds"/>
                    </mxGeometry>
                </mxCell>
                <mxCell id="u9htjXkEXDedvNMwMcPZ-16" value="User" style="shape=table;startSize=30;container=1;collapsible=1;childLayout=tableLayout;fixedRows=1;rowLines=0;fontStyle=1;align=center;resizeLast=1;fillColor=#0050ef;fontColor=#ffffff;strokeColor=#CCE5FF;" parent="1" vertex="1">
                    <mxGeometry x="410" y="270" width="190" height="300" as="geometry">
                        <mxRectangle x="410" y="270" width="60" height="30" as="alternateBounds"/>
                    </mxGeometry>
                </mxCell>
                <mxCell id="u9htjXkEXDedvNMwMcPZ-17" value="" style="shape=partialRectangle;collapsible=0;dropTarget=0;pointerEvents=0;fillColor=#0050ef;top=0;left=0;bottom=1;right=0;points=[[0,0.5],[1,0.5]];portConstraint=eastwest;fontColor=#ffffff;strokeColor=#CCE5FF;" parent="u9htjXkEXDedvNMwMcPZ-16" vertex="1">
                    <mxGeometry y="30" width="190" height="30" as="geometry"/>
                </mxCell>
                <mxCell id="u9htjXkEXDedvNMwMcPZ-18" value="PK" style="shape=partialRectangle;connectable=0;fillColor=#0050ef;top=0;left=0;bottom=0;right=0;fontStyle=1;overflow=hidden;fontColor=#ffffff;strokeColor=#CCE5FF;" parent="u9htjXkEXDedvNMwMcPZ-17" vertex="1">
                    <mxGeometry width="30" height="30" as="geometry">
                        <mxRectangle width="30" height="30" as="alternateBounds"/>
                    </mxGeometry>
                </mxCell>
                <mxCell id="u9htjXkEXDedvNMwMcPZ-19" value="user_id(autoincrement)" style="shape=partialRectangle;connectable=0;fillColor=#0050ef;top=0;left=0;bottom=0;right=0;align=left;spacingLeft=6;fontStyle=5;overflow=hidden;fontColor=#ffffff;strokeColor=#CCE5FF;" parent="u9htjXkEXDedvNMwMcPZ-17" vertex="1">
                    <mxGeometry x="30" width="160" height="30" as="geometry">
                        <mxRectangle width="160" height="30" as="alternateBounds"/>
                    </mxGeometry>
                </mxCell>
                <mxCell id="u9htjXkEXDedvNMwMcPZ-23" value="" style="shape=partialRectangle;collapsible=0;dropTarget=0;pointerEvents=0;fillColor=#0050ef;top=0;left=0;bottom=0;right=0;points=[[0,0.5],[1,0.5]];portConstraint=eastwest;fontColor=#ffffff;strokeColor=#CCE5FF;" parent="u9htjXkEXDedvNMwMcPZ-16" vertex="1">
                    <mxGeometry y="60" width="190" height="30" as="geometry"/>
                </mxCell>
                <mxCell id="u9htjXkEXDedvNMwMcPZ-24" value="" style="shape=partialRectangle;connectable=0;fillColor=#0050ef;top=0;left=0;bottom=0;right=0;editable=1;overflow=hidden;fontColor=#ffffff;strokeColor=#CCE5FF;" parent="u9htjXkEXDedvNMwMcPZ-23" vertex="1">
                    <mxGeometry width="30" height="30" as="geometry">
                        <mxRectangle width="30" height="30" as="alternateBounds"/>
                    </mxGeometry>
                </mxCell>
                <mxCell id="u9htjXkEXDedvNMwMcPZ-25" value="user_nickname" style="shape=partialRectangle;connectable=0;fillColor=#0050ef;top=0;left=0;bottom=0;right=0;align=left;spacingLeft=6;overflow=hidden;fontColor=#ffffff;strokeColor=#CCE5FF;" parent="u9htjXkEXDedvNMwMcPZ-23" vertex="1">
                    <mxGeometry x="30" width="160" height="30" as="geometry">
                        <mxRectangle width="160" height="30" as="alternateBounds"/>
                    </mxGeometry>
                </mxCell>
                <mxCell id="u9htjXkEXDedvNMwMcPZ-26" value="" style="shape=partialRectangle;collapsible=0;dropTarget=0;pointerEvents=0;fillColor=#0050ef;top=0;left=0;bottom=0;right=0;points=[[0,0.5],[1,0.5]];portConstraint=eastwest;fontColor=#ffffff;strokeColor=#CCE5FF;" parent="u9htjXkEXDedvNMwMcPZ-16" vertex="1">
                    <mxGeometry y="90" width="190" height="30" as="geometry"/>
                </mxCell>
                <mxCell id="u9htjXkEXDedvNMwMcPZ-27" value="" style="shape=partialRectangle;connectable=0;fillColor=#0050ef;top=0;left=0;bottom=0;right=0;editable=1;overflow=hidden;fontColor=#ffffff;strokeColor=#CCE5FF;" parent="u9htjXkEXDedvNMwMcPZ-26" vertex="1">
                    <mxGeometry width="30" height="30" as="geometry">
                        <mxRectangle width="30" height="30" as="alternateBounds"/>
                    </mxGeometry>
                </mxCell>
                <mxCell id="u9htjXkEXDedvNMwMcPZ-28" value="user_fname" style="shape=partialRectangle;connectable=0;fillColor=#0050ef;top=0;left=0;bottom=0;right=0;align=left;spacingLeft=6;overflow=hidden;fontColor=#ffffff;strokeColor=#CCE5FF;" parent="u9htjXkEXDedvNMwMcPZ-26" vertex="1">
                    <mxGeometry x="30" width="160" height="30" as="geometry">
                        <mxRectangle width="160" height="30" as="alternateBounds"/>
                    </mxGeometry>
                </mxCell>
                <mxCell id="3UjMqno5BkrP_c-94jJg-69" value="" style="shape=partialRectangle;collapsible=0;dropTarget=0;pointerEvents=0;fillColor=#0050ef;top=0;left=0;bottom=0;right=0;points=[[0,0.5],[1,0.5]];portConstraint=eastwest;fontColor=#ffffff;strokeColor=#CCE5FF;" parent="u9htjXkEXDedvNMwMcPZ-16" vertex="1">
                    <mxGeometry y="120" width="190" height="30" as="geometry"/>
                </mxCell>
                <mxCell id="3UjMqno5BkrP_c-94jJg-70" value="" style="shape=partialRectangle;connectable=0;fillColor=#0050ef;top=0;left=0;bottom=0;right=0;editable=1;overflow=hidden;fontColor=#ffffff;strokeColor=#CCE5FF;" parent="3UjMqno5BkrP_c-94jJg-69" vertex="1">
                    <mxGeometry width="30" height="30" as="geometry">
                        <mxRectangle width="30" height="30" as="alternateBounds"/>
                    </mxGeometry>
                </mxCell>
                <mxCell id="3UjMqno5BkrP_c-94jJg-71" value="user_lname" style="shape=partialRectangle;connectable=0;fillColor=#0050ef;top=0;left=0;bottom=0;right=0;align=left;spacingLeft=6;overflow=hidden;fontColor=#ffffff;strokeColor=#CCE5FF;" parent="3UjMqno5BkrP_c-94jJg-69" vertex="1">
                    <mxGeometry x="30" width="160" height="30" as="geometry">
                        <mxRectangle width="160" height="30" as="alternateBounds"/>
                    </mxGeometry>
                </mxCell>
                <mxCell id="3UjMqno5BkrP_c-94jJg-72" value="" style="shape=partialRectangle;collapsible=0;dropTarget=0;pointerEvents=0;fillColor=#0050ef;top=0;left=0;bottom=0;right=0;points=[[0,0.5],[1,0.5]];portConstraint=eastwest;fontColor=#ffffff;strokeColor=#CCE5FF;" parent="u9htjXkEXDedvNMwMcPZ-16" vertex="1">
                    <mxGeometry y="150" width="190" height="30" as="geometry"/>
                </mxCell>
                <mxCell id="3UjMqno5BkrP_c-94jJg-73" value="" style="shape=partialRectangle;connectable=0;fillColor=#0050ef;top=0;left=0;bottom=0;right=0;editable=1;overflow=hidden;fontColor=#ffffff;strokeColor=#CCE5FF;" parent="3UjMqno5BkrP_c-94jJg-72" vertex="1">
                    <mxGeometry width="30" height="30" as="geometry">
                        <mxRectangle width="30" height="30" as="alternateBounds"/>
                    </mxGeometry>
                </mxCell>
                <mxCell id="3UjMqno5BkrP_c-94jJg-74" value="email(uniq)" style="shape=partialRectangle;connectable=0;fillColor=#0050ef;top=0;left=0;bottom=0;right=0;align=left;spacingLeft=6;overflow=hidden;fontColor=#ffffff;strokeColor=#CCE5FF;" parent="3UjMqno5BkrP_c-94jJg-72" vertex="1">
                    <mxGeometry x="30" width="160" height="30" as="geometry">
                        <mxRectangle width="160" height="30" as="alternateBounds"/>
                    </mxGeometry>
                </mxCell>
                <mxCell id="3UjMqno5BkrP_c-94jJg-75" value="" style="shape=partialRectangle;collapsible=0;dropTarget=0;pointerEvents=0;fillColor=#0050ef;top=0;left=0;bottom=0;right=0;points=[[0,0.5],[1,0.5]];portConstraint=eastwest;fontColor=#ffffff;strokeColor=#CCE5FF;" parent="u9htjXkEXDedvNMwMcPZ-16" vertex="1">
                    <mxGeometry y="180" width="190" height="30" as="geometry"/>
                </mxCell>
                <mxCell id="3UjMqno5BkrP_c-94jJg-76" value="" style="shape=partialRectangle;connectable=0;fillColor=#0050ef;top=0;left=0;bottom=0;right=0;editable=1;overflow=hidden;fontColor=#ffffff;strokeColor=#CCE5FF;" parent="3UjMqno5BkrP_c-94jJg-75" vertex="1">
                    <mxGeometry width="30" height="30" as="geometry">
                        <mxRectangle width="30" height="30" as="alternateBounds"/>
                    </mxGeometry>
                </mxCell>
                <mxCell id="3UjMqno5BkrP_c-94jJg-77" value="tell" style="shape=partialRectangle;connectable=0;fillColor=#0050ef;top=0;left=0;bottom=0;right=0;align=left;spacingLeft=6;overflow=hidden;fontColor=#ffffff;strokeColor=#CCE5FF;" parent="3UjMqno5BkrP_c-94jJg-75" vertex="1">
                    <mxGeometry x="30" width="160" height="30" as="geometry">
                        <mxRectangle width="160" height="30" as="alternateBounds"/>
                    </mxGeometry>
                </mxCell>
                <mxCell id="3UjMqno5BkrP_c-94jJg-78" value="" style="shape=partialRectangle;collapsible=0;dropTarget=0;pointerEvents=0;fillColor=#0050ef;top=0;left=0;bottom=0;right=0;points=[[0,0.5],[1,0.5]];portConstraint=eastwest;fontColor=#ffffff;strokeColor=#CCE5FF;" parent="u9htjXkEXDedvNMwMcPZ-16" vertex="1">
                    <mxGeometry y="210" width="190" height="30" as="geometry"/>
                </mxCell>
                <mxCell id="3UjMqno5BkrP_c-94jJg-79" value="" style="shape=partialRectangle;connectable=0;fillColor=#0050ef;top=0;left=0;bottom=0;right=0;editable=1;overflow=hidden;fontColor=#ffffff;strokeColor=#CCE5FF;" parent="3UjMqno5BkrP_c-94jJg-78" vertex="1">
                    <mxGeometry width="30" height="30" as="geometry">
                        <mxRectangle width="30" height="30" as="alternateBounds"/>
                    </mxGeometry>
                </mxCell>
                <mxCell id="3UjMqno5BkrP_c-94jJg-80" value="prefecture" style="shape=partialRectangle;connectable=0;fillColor=#0050ef;top=0;left=0;bottom=0;right=0;align=left;spacingLeft=6;overflow=hidden;fontColor=#ffffff;strokeColor=#CCE5FF;" parent="3UjMqno5BkrP_c-94jJg-78" vertex="1">
                    <mxGeometry x="30" width="160" height="30" as="geometry">
                        <mxRectangle width="160" height="30" as="alternateBounds"/>
                    </mxGeometry>
                </mxCell>
                <mxCell id="14" value="" style="shape=partialRectangle;collapsible=0;dropTarget=0;pointerEvents=0;fillColor=#0050ef;top=0;left=0;bottom=0;right=0;points=[[0,0.5],[1,0.5]];portConstraint=eastwest;fontColor=#ffffff;strokeColor=#CCE5FF;" parent="u9htjXkEXDedvNMwMcPZ-16" vertex="1">
                    <mxGeometry y="240" width="190" height="30" as="geometry"/>
                </mxCell>
                <mxCell id="15" value="" style="shape=partialRectangle;connectable=0;fillColor=#0050ef;top=0;left=0;bottom=0;right=0;editable=1;overflow=hidden;fontColor=#ffffff;strokeColor=#CCE5FF;" parent="14" vertex="1">
                    <mxGeometry width="30" height="30" as="geometry">
                        <mxRectangle width="30" height="30" as="alternateBounds"/>
                    </mxGeometry>
                </mxCell>
                <mxCell id="16" value="city" style="shape=partialRectangle;connectable=0;fillColor=#0050ef;top=0;left=0;bottom=0;right=0;align=left;spacingLeft=6;overflow=hidden;fontColor=#ffffff;strokeColor=#CCE5FF;" parent="14" vertex="1">
                    <mxGeometry x="30" width="160" height="30" as="geometry">
                        <mxRectangle width="160" height="30" as="alternateBounds"/>
                    </mxGeometry>
                </mxCell>
                <mxCell id="3UjMqno5BkrP_c-94jJg-143" value="" style="shape=partialRectangle;collapsible=0;dropTarget=0;pointerEvents=0;fillColor=#0050ef;top=0;left=0;bottom=0;right=0;points=[[0,0.5],[1,0.5]];portConstraint=eastwest;fontColor=#ffffff;strokeColor=#CCE5FF;" parent="u9htjXkEXDedvNMwMcPZ-16" vertex="1">
                    <mxGeometry y="270" width="190" height="30" as="geometry"/>
                </mxCell>
                <mxCell id="3UjMqno5BkrP_c-94jJg-144" value="" style="shape=partialRectangle;connectable=0;fillColor=#0050ef;top=0;left=0;bottom=0;right=0;editable=1;overflow=hidden;fontColor=#ffffff;strokeColor=#CCE5FF;" parent="3UjMqno5BkrP_c-94jJg-143" vertex="1">
                    <mxGeometry width="30" height="30" as="geometry">
                        <mxRectangle width="30" height="30" as="alternateBounds"/>
                    </mxGeometry>
                </mxCell>
                <mxCell id="3UjMqno5BkrP_c-94jJg-145" value="update" style="shape=partialRectangle;connectable=0;fillColor=#0050ef;top=0;left=0;bottom=0;right=0;align=left;spacingLeft=6;overflow=hidden;fontColor=#ffffff;strokeColor=#CCE5FF;" parent="3UjMqno5BkrP_c-94jJg-143" vertex="1">
                    <mxGeometry x="30" width="160" height="30" as="geometry">
                        <mxRectangle width="160" height="30" as="alternateBounds"/>
                    </mxGeometry>
                </mxCell>
                <mxCell id="3UjMqno5BkrP_c-94jJg-49" value="Pet" style="shape=table;startSize=30;container=1;collapsible=1;childLayout=tableLayout;fixedRows=1;rowLines=0;fontStyle=1;align=center;resizeLast=1;fillColor=#0050ef;fontColor=#ffffff;strokeColor=#CCE5FF;" parent="1" vertex="1">
                    <mxGeometry x="760" y="240" width="190" height="240" as="geometry"/>
                </mxCell>
                <mxCell id="3UjMqno5BkrP_c-94jJg-50" value="" style="shape=partialRectangle;collapsible=0;dropTarget=0;pointerEvents=0;fillColor=#0050ef;top=0;left=0;bottom=1;right=0;points=[[0,0.5],[1,0.5]];portConstraint=eastwest;fontColor=#ffffff;strokeColor=#CCE5FF;" parent="3UjMqno5BkrP_c-94jJg-49" vertex="1">
                    <mxGeometry y="30" width="190" height="30" as="geometry"/>
                </mxCell>
                <mxCell id="3UjMqno5BkrP_c-94jJg-51" value="PK" style="shape=partialRectangle;connectable=0;fillColor=#0050ef;top=0;left=0;bottom=0;right=0;fontStyle=1;overflow=hidden;fontColor=#ffffff;strokeColor=#CCE5FF;" parent="3UjMqno5BkrP_c-94jJg-50" vertex="1">
                    <mxGeometry width="30" height="30" as="geometry">
                        <mxRectangle width="30" height="30" as="alternateBounds"/>
                    </mxGeometry>
                </mxCell>
                <mxCell id="3UjMqno5BkrP_c-94jJg-52" value="pet_id" style="shape=partialRectangle;connectable=0;fillColor=#0050ef;top=0;left=0;bottom=0;right=0;align=left;spacingLeft=6;fontStyle=5;overflow=hidden;fontColor=#ffffff;strokeColor=#CCE5FF;" parent="3UjMqno5BkrP_c-94jJg-50" vertex="1">
                    <mxGeometry x="30" width="160" height="30" as="geometry">
                        <mxRectangle width="160" height="30" as="alternateBounds"/>
                    </mxGeometry>
                </mxCell>
                <mxCell id="3UjMqno5BkrP_c-94jJg-53" value="" style="shape=partialRectangle;collapsible=0;dropTarget=0;pointerEvents=0;fillColor=#0050ef;top=0;left=0;bottom=0;right=0;points=[[0,0.5],[1,0.5]];portConstraint=eastwest;fontColor=#ffffff;strokeColor=#CCE5FF;" parent="3UjMqno5BkrP_c-94jJg-49" vertex="1">
                    <mxGeometry y="60" width="190" height="30" as="geometry"/>
                </mxCell>
                <mxCell id="3UjMqno5BkrP_c-94jJg-54" value="" style="shape=partialRectangle;connectable=0;fillColor=#0050ef;top=0;left=0;bottom=0;right=0;editable=1;overflow=hidden;fontColor=#ffffff;strokeColor=#CCE5FF;" parent="3UjMqno5BkrP_c-94jJg-53" vertex="1">
                    <mxGeometry width="30" height="30" as="geometry">
                        <mxRectangle width="30" height="30" as="alternateBounds"/>
                    </mxGeometry>
                </mxCell>
                <mxCell id="3UjMqno5BkrP_c-94jJg-55" value="user_id" style="shape=partialRectangle;connectable=0;fillColor=#0050ef;top=0;left=0;bottom=0;right=0;align=left;spacingLeft=6;overflow=hidden;fontColor=#ffffff;strokeColor=#CCE5FF;" parent="3UjMqno5BkrP_c-94jJg-53" vertex="1">
                    <mxGeometry x="30" width="160" height="30" as="geometry">
                        <mxRectangle width="160" height="30" as="alternateBounds"/>
                    </mxGeometry>
                </mxCell>
                <mxCell id="3UjMqno5BkrP_c-94jJg-56" value="" style="shape=partialRectangle;collapsible=0;dropTarget=0;pointerEvents=0;fillColor=#0050ef;top=0;left=0;bottom=0;right=0;points=[[0,0.5],[1,0.5]];portConstraint=eastwest;fontColor=#ffffff;strokeColor=#CCE5FF;" parent="3UjMqno5BkrP_c-94jJg-49" vertex="1">
                    <mxGeometry y="90" width="190" height="30" as="geometry"/>
                </mxCell>
                <mxCell id="3UjMqno5BkrP_c-94jJg-57" value="" style="shape=partialRectangle;connectable=0;fillColor=#0050ef;top=0;left=0;bottom=0;right=0;editable=1;overflow=hidden;fontColor=#ffffff;strokeColor=#CCE5FF;" parent="3UjMqno5BkrP_c-94jJg-56" vertex="1">
                    <mxGeometry width="30" height="30" as="geometry">
                        <mxRectangle width="30" height="30" as="alternateBounds"/>
                    </mxGeometry>
                </mxCell>
                <mxCell id="3UjMqno5BkrP_c-94jJg-58" value="pet_name" style="shape=partialRectangle;connectable=0;fillColor=#0050ef;top=0;left=0;bottom=0;right=0;align=left;spacingLeft=6;overflow=hidden;fontColor=#ffffff;strokeColor=#CCE5FF;" parent="3UjMqno5BkrP_c-94jJg-56" vertex="1">
                    <mxGeometry x="30" width="160" height="30" as="geometry">
                        <mxRectangle width="160" height="30" as="alternateBounds"/>
                    </mxGeometry>
                </mxCell>
                <mxCell id="3UjMqno5BkrP_c-94jJg-81" value="" style="shape=partialRectangle;collapsible=0;dropTarget=0;pointerEvents=0;fillColor=#0050ef;top=0;left=0;bottom=0;right=0;points=[[0,0.5],[1,0.5]];portConstraint=eastwest;fontColor=#ffffff;strokeColor=#CCE5FF;" parent="3UjMqno5BkrP_c-94jJg-49" vertex="1">
                    <mxGeometry y="120" width="190" height="30" as="geometry"/>
                </mxCell>
                <mxCell id="3UjMqno5BkrP_c-94jJg-82" value="" style="shape=partialRectangle;connectable=0;fillColor=#0050ef;top=0;left=0;bottom=0;right=0;editable=1;overflow=hidden;fontColor=#ffffff;strokeColor=#CCE5FF;" parent="3UjMqno5BkrP_c-94jJg-81" vertex="1">
                    <mxGeometry width="30" height="30" as="geometry">
                        <mxRectangle width="30" height="30" as="alternateBounds"/>
                    </mxGeometry>
                </mxCell>
                <mxCell id="3UjMqno5BkrP_c-94jJg-83" value="pet_description" style="shape=partialRectangle;connectable=0;fillColor=#0050ef;top=0;left=0;bottom=0;right=0;align=left;spacingLeft=6;overflow=hidden;fontColor=#ffffff;strokeColor=#CCE5FF;" parent="3UjMqno5BkrP_c-94jJg-81" vertex="1">
                    <mxGeometry x="30" width="160" height="30" as="geometry">
                        <mxRectangle width="160" height="30" as="alternateBounds"/>
                    </mxGeometry>
                </mxCell>
                <mxCell id="3UjMqno5BkrP_c-94jJg-84" value="" style="shape=partialRectangle;collapsible=0;dropTarget=0;pointerEvents=0;fillColor=#0050ef;top=0;left=0;bottom=0;right=0;points=[[0,0.5],[1,0.5]];portConstraint=eastwest;fontColor=#ffffff;strokeColor=#CCE5FF;" parent="3UjMqno5BkrP_c-94jJg-49" vertex="1">
                    <mxGeometry y="150" width="190" height="30" as="geometry"/>
                </mxCell>
                <mxCell id="3UjMqno5BkrP_c-94jJg-85" value="" style="shape=partialRectangle;connectable=0;fillColor=#0050ef;top=0;left=0;bottom=0;right=0;editable=1;overflow=hidden;fontColor=#ffffff;strokeColor=#CCE5FF;" parent="3UjMqno5BkrP_c-94jJg-84" vertex="1">
                    <mxGeometry width="30" height="30" as="geometry">
                        <mxRectangle width="30" height="30" as="alternateBounds"/>
                    </mxGeometry>
                </mxCell>
                <mxCell id="3UjMqno5BkrP_c-94jJg-86" value="lost_flag" style="shape=partialRectangle;connectable=0;fillColor=#0050ef;top=0;left=0;bottom=0;right=0;align=left;spacingLeft=6;overflow=hidden;fontColor=#ffffff;strokeColor=#CCE5FF;" parent="3UjMqno5BkrP_c-94jJg-84" vertex="1">
                    <mxGeometry x="30" width="160" height="30" as="geometry">
                        <mxRectangle width="160" height="30" as="alternateBounds"/>
                    </mxGeometry>
                </mxCell>
                <mxCell id="u9htjXkEXDedvNMwMcPZ-49" value="" style="shape=partialRectangle;collapsible=0;dropTarget=0;pointerEvents=0;fillColor=#0050ef;top=0;left=0;bottom=0;right=0;points=[[0,0.5],[1,0.5]];portConstraint=eastwest;fontColor=#ffffff;strokeColor=#CCE5FF;" parent="3UjMqno5BkrP_c-94jJg-49" vertex="1">
                    <mxGeometry y="180" width="190" height="30" as="geometry"/>
                </mxCell>
                <mxCell id="u9htjXkEXDedvNMwMcPZ-50" value="" style="shape=partialRectangle;connectable=0;fillColor=#0050ef;top=0;left=0;bottom=0;right=0;editable=1;overflow=hidden;fontColor=#ffffff;strokeColor=#CCE5FF;" parent="u9htjXkEXDedvNMwMcPZ-49" vertex="1">
                    <mxGeometry width="30" height="30" as="geometry">
                        <mxRectangle width="30" height="30" as="alternateBounds"/>
                    </mxGeometry>
                </mxCell>
                <mxCell id="u9htjXkEXDedvNMwMcPZ-51" value="lost_time" style="shape=partialRectangle;connectable=0;fillColor=#0050ef;top=0;left=0;bottom=0;right=0;align=left;spacingLeft=6;overflow=hidden;fontColor=#ffffff;strokeColor=#CCE5FF;" parent="u9htjXkEXDedvNMwMcPZ-49" vertex="1">
                    <mxGeometry x="30" width="160" height="30" as="geometry">
                        <mxRectangle width="160" height="30" as="alternateBounds"/>
                    </mxGeometry>
                </mxCell>
                <mxCell id="u9htjXkEXDedvNMwMcPZ-52" value="" style="shape=partialRectangle;collapsible=0;dropTarget=0;pointerEvents=0;fillColor=#0050ef;top=0;left=0;bottom=0;right=0;points=[[0,0.5],[1,0.5]];portConstraint=eastwest;fontColor=#ffffff;strokeColor=#CCE5FF;" parent="3UjMqno5BkrP_c-94jJg-49" vertex="1">
                    <mxGeometry y="210" width="190" height="30" as="geometry"/>
                </mxCell>
                <mxCell id="u9htjXkEXDedvNMwMcPZ-53" value="" style="shape=partialRectangle;connectable=0;fillColor=#0050ef;top=0;left=0;bottom=0;right=0;editable=1;overflow=hidden;fontColor=#ffffff;strokeColor=#CCE5FF;" parent="u9htjXkEXDedvNMwMcPZ-52" vertex="1">
                    <mxGeometry width="30" height="30" as="geometry">
                        <mxRectangle width="30" height="30" as="alternateBounds"/>
                    </mxGeometry>
                </mxCell>
                <mxCell id="u9htjXkEXDedvNMwMcPZ-54" value="update" style="shape=partialRectangle;connectable=0;fillColor=#0050ef;top=0;left=0;bottom=0;right=0;align=left;spacingLeft=6;overflow=hidden;fontColor=#ffffff;strokeColor=#CCE5FF;" parent="u9htjXkEXDedvNMwMcPZ-52" vertex="1">
                    <mxGeometry x="30" width="160" height="30" as="geometry">
                        <mxRectangle width="160" height="30" as="alternateBounds"/>
                    </mxGeometry>
                </mxCell>
                <mxCell id="3UjMqno5BkrP_c-94jJg-90" value="thread" style="shape=table;startSize=30;container=1;collapsible=1;childLayout=tableLayout;fixedRows=1;rowLines=0;fontStyle=1;align=center;resizeLast=1;fillColor=#0050ef;fontColor=#ffffff;strokeColor=#CCE5FF;" parent="1" vertex="1">
                    <mxGeometry x="480" y="660" width="180" height="240" as="geometry"/>
                </mxCell>
                <mxCell id="3UjMqno5BkrP_c-94jJg-91" value="" style="shape=partialRectangle;collapsible=0;dropTarget=0;pointerEvents=0;fillColor=#0050ef;top=0;left=0;bottom=1;right=0;points=[[0,0.5],[1,0.5]];portConstraint=eastwest;fontColor=#ffffff;strokeColor=#CCE5FF;" parent="3UjMqno5BkrP_c-94jJg-90" vertex="1">
                    <mxGeometry y="30" width="180" height="30" as="geometry"/>
                </mxCell>
                <mxCell id="3UjMqno5BkrP_c-94jJg-92" value="PK" style="shape=partialRectangle;connectable=0;fillColor=#0050ef;top=0;left=0;bottom=0;right=0;fontStyle=1;overflow=hidden;fontColor=#ffffff;strokeColor=#CCE5FF;" parent="3UjMqno5BkrP_c-94jJg-91" vertex="1">
                    <mxGeometry width="30" height="30" as="geometry">
                        <mxRectangle width="30" height="30" as="alternateBounds"/>
                    </mxGeometry>
                </mxCell>
                <mxCell id="3UjMqno5BkrP_c-94jJg-93" value="thread_id" style="shape=partialRectangle;connectable=0;fillColor=#0050ef;top=0;left=0;bottom=0;right=0;align=left;spacingLeft=6;fontStyle=5;overflow=hidden;fontColor=#ffffff;strokeColor=#CCE5FF;" parent="3UjMqno5BkrP_c-94jJg-91" vertex="1">
                    <mxGeometry x="30" width="150" height="30" as="geometry">
                        <mxRectangle width="150" height="30" as="alternateBounds"/>
                    </mxGeometry>
                </mxCell>
                <mxCell id="3UjMqno5BkrP_c-94jJg-94" value="" style="shape=partialRectangle;collapsible=0;dropTarget=0;pointerEvents=0;fillColor=#0050ef;top=0;left=0;bottom=0;right=0;points=[[0,0.5],[1,0.5]];portConstraint=eastwest;fontColor=#ffffff;strokeColor=#CCE5FF;" parent="3UjMqno5BkrP_c-94jJg-90" vertex="1">
                    <mxGeometry y="60" width="180" height="30" as="geometry"/>
                </mxCell>
                <mxCell id="3UjMqno5BkrP_c-94jJg-95" value="" style="shape=partialRectangle;connectable=0;fillColor=#0050ef;top=0;left=0;bottom=0;right=0;editable=1;overflow=hidden;fontColor=#ffffff;strokeColor=#CCE5FF;" parent="3UjMqno5BkrP_c-94jJg-94" vertex="1">
                    <mxGeometry width="30" height="30" as="geometry">
                        <mxRectangle width="30" height="30" as="alternateBounds"/>
                    </mxGeometry>
                </mxCell>
                <mxCell id="3UjMqno5BkrP_c-94jJg-96" value="user_id" style="shape=partialRectangle;connectable=0;fillColor=#0050ef;top=0;left=0;bottom=0;right=0;align=left;spacingLeft=6;overflow=hidden;fontColor=#ffffff;strokeColor=#CCE5FF;" parent="3UjMqno5BkrP_c-94jJg-94" vertex="1">
                    <mxGeometry x="30" width="150" height="30" as="geometry">
                        <mxRectangle width="150" height="30" as="alternateBounds"/>
                    </mxGeometry>
                </mxCell>
                <mxCell id="3UjMqno5BkrP_c-94jJg-97" value="" style="shape=partialRectangle;collapsible=0;dropTarget=0;pointerEvents=0;fillColor=#0050ef;top=0;left=0;bottom=0;right=0;points=[[0,0.5],[1,0.5]];portConstraint=eastwest;fontColor=#ffffff;strokeColor=#CCE5FF;" parent="3UjMqno5BkrP_c-94jJg-90" vertex="1">
                    <mxGeometry y="90" width="180" height="30" as="geometry"/>
                </mxCell>
                <mxCell id="3UjMqno5BkrP_c-94jJg-98" value="" style="shape=partialRectangle;connectable=0;fillColor=#0050ef;top=0;left=0;bottom=0;right=0;editable=1;overflow=hidden;fontColor=#ffffff;strokeColor=#CCE5FF;" parent="3UjMqno5BkrP_c-94jJg-97" vertex="1">
                    <mxGeometry width="30" height="30" as="geometry">
                        <mxRectangle width="30" height="30" as="alternateBounds"/>
                    </mxGeometry>
                </mxCell>
                <mxCell id="3UjMqno5BkrP_c-94jJg-99" value="message" style="shape=partialRectangle;connectable=0;fillColor=#0050ef;top=0;left=0;bottom=0;right=0;align=left;spacingLeft=6;overflow=hidden;fontColor=#ffffff;strokeColor=#CCE5FF;" parent="3UjMqno5BkrP_c-94jJg-97" vertex="1">
                    <mxGeometry x="30" width="150" height="30" as="geometry">
                        <mxRectangle width="150" height="30" as="alternateBounds"/>
                    </mxGeometry>
                </mxCell>
                <mxCell id="3UjMqno5BkrP_c-94jJg-139" style="edgeStyle=orthogonalEdgeStyle;shape=link;rounded=0;orthogonalLoop=1;jettySize=auto;html=1;exitX=0;exitY=0.5;exitDx=0;exitDy=0;entryX=0;entryY=0.5;entryDx=0;entryDy=0;fillColor=#0050ef;strokeColor=#CCE5FF;" parent="3UjMqno5BkrP_c-94jJg-90" source="3UjMqno5BkrP_c-94jJg-136" target="3UjMqno5BkrP_c-94jJg-91" edge="1">
                    <mxGeometry relative="1" as="geometry"/>
                </mxCell>
                <mxCell id="3UjMqno5BkrP_c-94jJg-136" value="" style="shape=partialRectangle;collapsible=0;dropTarget=0;pointerEvents=0;fillColor=#0050ef;top=0;left=0;bottom=0;right=0;points=[[0,0.5],[1,0.5]];portConstraint=eastwest;fontColor=#ffffff;strokeColor=#CCE5FF;" parent="3UjMqno5BkrP_c-94jJg-90" vertex="1">
                    <mxGeometry y="120" width="180" height="30" as="geometry"/>
                </mxCell>
                <mxCell id="3UjMqno5BkrP_c-94jJg-137" value="" style="shape=partialRectangle;connectable=0;fillColor=#0050ef;top=0;left=0;bottom=0;right=0;editable=1;overflow=hidden;fontColor=#ffffff;strokeColor=#CCE5FF;" parent="3UjMqno5BkrP_c-94jJg-136" vertex="1">
                    <mxGeometry width="30" height="30" as="geometry">
                        <mxRectangle width="30" height="30" as="alternateBounds"/>
                    </mxGeometry>
                </mxCell>
                <mxCell id="3UjMqno5BkrP_c-94jJg-138" value="reply_id" style="shape=partialRectangle;connectable=0;fillColor=#0050ef;top=0;left=0;bottom=0;right=0;align=left;spacingLeft=6;overflow=hidden;fontColor=#ffffff;strokeColor=#CCE5FF;" parent="3UjMqno5BkrP_c-94jJg-136" vertex="1">
                    <mxGeometry x="30" width="150" height="30" as="geometry">
                        <mxRectangle width="150" height="30" as="alternateBounds"/>
                    </mxGeometry>
                </mxCell>
                <mxCell id="bZAwkXbdGldh79CGy7eX-81" value="" style="shape=partialRectangle;collapsible=0;dropTarget=0;pointerEvents=0;fillColor=#0050ef;top=0;left=0;bottom=0;right=0;points=[[0,0.5],[1,0.5]];portConstraint=eastwest;fontColor=#ffffff;strokeColor=#CCE5FF;" parent="3UjMqno5BkrP_c-94jJg-90" vertex="1">
                    <mxGeometry y="150" width="180" height="30" as="geometry"/>
                </mxCell>
                <mxCell id="bZAwkXbdGldh79CGy7eX-82" value="" style="shape=partialRectangle;connectable=0;fillColor=#0050ef;top=0;left=0;bottom=0;right=0;editable=1;overflow=hidden;fontColor=#ffffff;strokeColor=#CCE5FF;" parent="bZAwkXbdGldh79CGy7eX-81" vertex="1">
                    <mxGeometry width="30" height="30" as="geometry">
                        <mxRectangle width="30" height="30" as="alternateBounds"/>
                    </mxGeometry>
                </mxCell>
                <mxCell id="bZAwkXbdGldh79CGy7eX-83" value="del_flag" style="shape=partialRectangle;connectable=0;fillColor=#0050ef;top=0;left=0;bottom=0;right=0;align=left;spacingLeft=6;overflow=hidden;fontColor=#ffffff;strokeColor=#CCE5FF;" parent="bZAwkXbdGldh79CGy7eX-81" vertex="1">
                    <mxGeometry x="30" width="150" height="30" as="geometry">
                        <mxRectangle width="150" height="30" as="alternateBounds"/>
                    </mxGeometry>
                </mxCell>
                <mxCell id="3UjMqno5BkrP_c-94jJg-140" value="" style="shape=partialRectangle;collapsible=0;dropTarget=0;pointerEvents=0;fillColor=#0050ef;top=0;left=0;bottom=0;right=0;points=[[0,0.5],[1,0.5]];portConstraint=eastwest;fontColor=#ffffff;strokeColor=#CCE5FF;" parent="3UjMqno5BkrP_c-94jJg-90" vertex="1">
                    <mxGeometry y="180" width="180" height="30" as="geometry"/>
                </mxCell>
                <mxCell id="3UjMqno5BkrP_c-94jJg-141" value="" style="shape=partialRectangle;connectable=0;fillColor=#0050ef;top=0;left=0;bottom=0;right=0;editable=1;overflow=hidden;fontColor=#ffffff;strokeColor=#CCE5FF;" parent="3UjMqno5BkrP_c-94jJg-140" vertex="1">
                    <mxGeometry width="30" height="30" as="geometry">
                        <mxRectangle width="30" height="30" as="alternateBounds"/>
                    </mxGeometry>
                </mxCell>
                <mxCell id="3UjMqno5BkrP_c-94jJg-142" value="pet_img_id" style="shape=partialRectangle;connectable=0;fillColor=#0050ef;top=0;left=0;bottom=0;right=0;align=left;spacingLeft=6;overflow=hidden;fontColor=#ffffff;strokeColor=#CCE5FF;" parent="3UjMqno5BkrP_c-94jJg-140" vertex="1">
                    <mxGeometry x="30" width="150" height="30" as="geometry">
                        <mxRectangle width="150" height="30" as="alternateBounds"/>
                    </mxGeometry>
                </mxCell>
                <mxCell id="3UjMqno5BkrP_c-94jJg-100" value="" style="shape=partialRectangle;collapsible=0;dropTarget=0;pointerEvents=0;fillColor=#0050ef;top=0;left=0;bottom=0;right=0;points=[[0,0.5],[1,0.5]];portConstraint=eastwest;fontColor=#ffffff;strokeColor=#CCE5FF;" parent="3UjMqno5BkrP_c-94jJg-90" vertex="1">
                    <mxGeometry y="210" width="180" height="30" as="geometry"/>
                </mxCell>
                <mxCell id="3UjMqno5BkrP_c-94jJg-101" value="" style="shape=partialRectangle;connectable=0;fillColor=#0050ef;top=0;left=0;bottom=0;right=0;editable=1;overflow=hidden;fontColor=#ffffff;strokeColor=#CCE5FF;" parent="3UjMqno5BkrP_c-94jJg-100" vertex="1">
                    <mxGeometry width="30" height="30" as="geometry">
                        <mxRectangle width="30" height="30" as="alternateBounds"/>
                    </mxGeometry>
                </mxCell>
                <mxCell id="3UjMqno5BkrP_c-94jJg-102" value="update" style="shape=partialRectangle;connectable=0;fillColor=#0050ef;top=0;left=0;bottom=0;right=0;align=left;spacingLeft=6;overflow=hidden;fontColor=#ffffff;strokeColor=#CCE5FF;" parent="3UjMqno5BkrP_c-94jJg-100" vertex="1">
                    <mxGeometry x="30" width="150" height="30" as="geometry">
                        <mxRectangle width="150" height="30" as="alternateBounds"/>
                    </mxGeometry>
                </mxCell>
                <mxCell id="3UjMqno5BkrP_c-94jJg-103" value="PetImage" style="shape=table;startSize=30;container=1;collapsible=1;childLayout=tableLayout;fixedRows=1;rowLines=0;fontStyle=1;align=center;resizeLast=1;fillColor=#0050ef;fontColor=#ffffff;strokeColor=#CCE5FF;" parent="1" vertex="1">
                    <mxGeometry x="1140" y="210" width="180" height="150" as="geometry">
                        <mxRectangle x="1620" y="210" width="80" height="30" as="alternateBounds"/>
                    </mxGeometry>
                </mxCell>
                <mxCell id="3UjMqno5BkrP_c-94jJg-104" value="" style="shape=partialRectangle;collapsible=0;dropTarget=0;pointerEvents=0;fillColor=#0050ef;top=0;left=0;bottom=1;right=0;points=[[0,0.5],[1,0.5]];portConstraint=eastwest;fontColor=#ffffff;strokeColor=#CCE5FF;" parent="3UjMqno5BkrP_c-94jJg-103" vertex="1">
                    <mxGeometry y="30" width="180" height="30" as="geometry"/>
                </mxCell>
                <mxCell id="3UjMqno5BkrP_c-94jJg-105" value="PK" style="shape=partialRectangle;connectable=0;fillColor=#0050ef;top=0;left=0;bottom=0;right=0;fontStyle=1;overflow=hidden;fontColor=#ffffff;strokeColor=#CCE5FF;" parent="3UjMqno5BkrP_c-94jJg-104" vertex="1">
                    <mxGeometry width="30" height="30" as="geometry">
                        <mxRectangle width="30" height="30" as="alternateBounds"/>
                    </mxGeometry>
                </mxCell>
                <mxCell id="3UjMqno5BkrP_c-94jJg-106" value="pet_img_id" style="shape=partialRectangle;connectable=0;fillColor=#0050ef;top=0;left=0;bottom=0;right=0;align=left;spacingLeft=6;fontStyle=5;overflow=hidden;fontColor=#ffffff;strokeColor=#CCE5FF;" parent="3UjMqno5BkrP_c-94jJg-104" vertex="1">
                    <mxGeometry x="30" width="150" height="30" as="geometry">
                        <mxRectangle width="150" height="30" as="alternateBounds"/>
                    </mxGeometry>
                </mxCell>
                <mxCell id="3UjMqno5BkrP_c-94jJg-107" value="" style="shape=partialRectangle;collapsible=0;dropTarget=0;pointerEvents=0;fillColor=#0050ef;top=0;left=0;bottom=0;right=0;points=[[0,0.5],[1,0.5]];portConstraint=eastwest;fontColor=#ffffff;strokeColor=#CCE5FF;" parent="3UjMqno5BkrP_c-94jJg-103" vertex="1">
                    <mxGeometry y="60" width="180" height="30" as="geometry"/>
                </mxCell>
                <mxCell id="3UjMqno5BkrP_c-94jJg-108" value="" style="shape=partialRectangle;connectable=0;fillColor=#0050ef;top=0;left=0;bottom=0;right=0;editable=1;overflow=hidden;fontColor=#ffffff;strokeColor=#CCE5FF;" parent="3UjMqno5BkrP_c-94jJg-107" vertex="1">
                    <mxGeometry width="30" height="30" as="geometry">
                        <mxRectangle width="30" height="30" as="alternateBounds"/>
                    </mxGeometry>
                </mxCell>
                <mxCell id="3UjMqno5BkrP_c-94jJg-109" value="pet_id" style="shape=partialRectangle;connectable=0;fillColor=#0050ef;top=0;left=0;bottom=0;right=0;align=left;spacingLeft=6;overflow=hidden;fontColor=#ffffff;strokeColor=#CCE5FF;" parent="3UjMqno5BkrP_c-94jJg-107" vertex="1">
                    <mxGeometry x="30" width="150" height="30" as="geometry">
                        <mxRectangle width="150" height="30" as="alternateBounds"/>
                    </mxGeometry>
                </mxCell>
                <mxCell id="3UjMqno5BkrP_c-94jJg-110" value="" style="shape=partialRectangle;collapsible=0;dropTarget=0;pointerEvents=0;fillColor=#0050ef;top=0;left=0;bottom=0;right=0;points=[[0,0.5],[1,0.5]];portConstraint=eastwest;fontColor=#ffffff;strokeColor=#CCE5FF;" parent="3UjMqno5BkrP_c-94jJg-103" vertex="1">
                    <mxGeometry y="90" width="180" height="30" as="geometry"/>
                </mxCell>
                <mxCell id="3UjMqno5BkrP_c-94jJg-111" value="" style="shape=partialRectangle;connectable=0;fillColor=#0050ef;top=0;left=0;bottom=0;right=0;editable=1;overflow=hidden;fontColor=#ffffff;strokeColor=#CCE5FF;" parent="3UjMqno5BkrP_c-94jJg-110" vertex="1">
                    <mxGeometry width="30" height="30" as="geometry">
                        <mxRectangle width="30" height="30" as="alternateBounds"/>
                    </mxGeometry>
                </mxCell>
                <mxCell id="3UjMqno5BkrP_c-94jJg-112" value="img_source" style="shape=partialRectangle;connectable=0;fillColor=#0050ef;top=0;left=0;bottom=0;right=0;align=left;spacingLeft=6;overflow=hidden;fontColor=#ffffff;strokeColor=#CCE5FF;" parent="3UjMqno5BkrP_c-94jJg-110" vertex="1">
                    <mxGeometry x="30" width="150" height="30" as="geometry">
                        <mxRectangle width="150" height="30" as="alternateBounds"/>
                    </mxGeometry>
                </mxCell>
                <mxCell id="bZAwkXbdGldh79CGy7eX-5" value="" style="shape=partialRectangle;collapsible=0;dropTarget=0;pointerEvents=0;fillColor=#0050ef;top=0;left=0;bottom=0;right=0;points=[[0,0.5],[1,0.5]];portConstraint=eastwest;fontColor=#ffffff;strokeColor=#CCE5FF;" parent="3UjMqno5BkrP_c-94jJg-103" vertex="1">
                    <mxGeometry y="120" width="180" height="30" as="geometry"/>
                </mxCell>
                <mxCell id="bZAwkXbdGldh79CGy7eX-6" value="" style="shape=partialRectangle;connectable=0;fillColor=#0050ef;top=0;left=0;bottom=0;right=0;editable=1;overflow=hidden;fontColor=#ffffff;strokeColor=#CCE5FF;" parent="bZAwkXbdGldh79CGy7eX-5" vertex="1">
                    <mxGeometry width="30" height="30" as="geometry">
                        <mxRectangle width="30" height="30" as="alternateBounds"/>
                    </mxGeometry>
                </mxCell>
                <mxCell id="bZAwkXbdGldh79CGy7eX-7" value="vector" style="shape=partialRectangle;connectable=0;fillColor=#0050ef;top=0;left=0;bottom=0;right=0;align=left;spacingLeft=6;overflow=hidden;fontColor=#ffffff;strokeColor=#CCE5FF;" parent="bZAwkXbdGldh79CGy7eX-5" vertex="1">
                    <mxGeometry x="30" width="150" height="30" as="geometry">
                        <mxRectangle width="150" height="30" as="alternateBounds"/>
                    </mxGeometry>
                </mxCell>
                <mxCell id="3UjMqno5BkrP_c-94jJg-130" style="edgeStyle=orthogonalEdgeStyle;rounded=0;orthogonalLoop=1;jettySize=auto;html=1;exitX=1;exitY=0.5;exitDx=0;exitDy=0;fillColor=#0050ef;strokeColor=#CCE5FF;" parent="1" source="3UjMqno5BkrP_c-94jJg-50" target="3UjMqno5BkrP_c-94jJg-107" edge="1">
                    <mxGeometry relative="1" as="geometry"/>
                </mxCell>
                <mxCell id="3UjMqno5BkrP_c-94jJg-131" style="edgeStyle=orthogonalEdgeStyle;rounded=0;orthogonalLoop=1;jettySize=auto;html=1;exitX=1;exitY=0.5;exitDx=0;exitDy=0;entryX=0;entryY=0.5;entryDx=0;entryDy=0;fillColor=#0050ef;strokeColor=#CCE5FF;" parent="1" source="u9htjXkEXDedvNMwMcPZ-17" target="3UjMqno5BkrP_c-94jJg-53" edge="1">
                    <mxGeometry relative="1" as="geometry"/>
                </mxCell>
                <mxCell id="3UjMqno5BkrP_c-94jJg-133" style="edgeStyle=orthogonalEdgeStyle;rounded=0;orthogonalLoop=1;jettySize=auto;html=1;exitX=1;exitY=0.5;exitDx=0;exitDy=0;shape=link;fillColor=#0050ef;strokeColor=#CCE5FF;" parent="1" source="u9htjXkEXDedvNMwMcPZ-2" target="u9htjXkEXDedvNMwMcPZ-17" edge="1">
                    <mxGeometry relative="1" as="geometry"/>
                </mxCell>
                <mxCell id="3UjMqno5BkrP_c-94jJg-134" style="edgeStyle=orthogonalEdgeStyle;rounded=0;orthogonalLoop=1;jettySize=auto;html=1;entryX=1;entryY=0.5;entryDx=0;entryDy=0;fillColor=#0050ef;strokeColor=#CCE5FF;" parent="1" source="u9htjXkEXDedvNMwMcPZ-17" target="3UjMqno5BkrP_c-94jJg-94" edge="1">
                    <mxGeometry relative="1" as="geometry"/>
                </mxCell>
                <mxCell id="u9htjXkEXDedvNMwMcPZ-74" value="SearchPet" style="shape=table;startSize=30;container=1;collapsible=1;childLayout=tableLayout;fixedRows=1;rowLines=0;fontStyle=1;align=center;resizeLast=1;fillColor=#0050ef;fontColor=#ffffff;strokeColor=#CCE5FF;" parent="1" vertex="1">
                    <mxGeometry x="1420" y="150" width="180" height="270" as="geometry">
                        <mxRectangle x="1620" y="210" width="80" height="30" as="alternateBounds"/>
                    </mxGeometry>
                </mxCell>
                <mxCell id="u9htjXkEXDedvNMwMcPZ-75" value="" style="shape=partialRectangle;collapsible=0;dropTarget=0;pointerEvents=0;fillColor=#0050ef;top=0;left=0;bottom=1;right=0;points=[[0,0.5],[1,0.5]];portConstraint=eastwest;fontColor=#ffffff;strokeColor=#CCE5FF;" parent="u9htjXkEXDedvNMwMcPZ-74" vertex="1">
                    <mxGeometry y="30" width="180" height="30" as="geometry"/>
                </mxCell>
                <mxCell id="u9htjXkEXDedvNMwMcPZ-76" value="PK" style="shape=partialRectangle;connectable=0;fillColor=#0050ef;top=0;left=0;bottom=0;right=0;fontStyle=1;overflow=hidden;fontColor=#ffffff;strokeColor=#CCE5FF;" parent="u9htjXkEXDedvNMwMcPZ-75" vertex="1">
                    <mxGeometry width="30" height="30" as="geometry">
                        <mxRectangle width="30" height="30" as="alternateBounds"/>
                    </mxGeometry>
                </mxCell>
                <mxCell id="u9htjXkEXDedvNMwMcPZ-77" value="search_pet_id" style="shape=partialRectangle;connectable=0;fillColor=#0050ef;top=0;left=0;bottom=0;right=0;align=left;spacingLeft=6;fontStyle=5;overflow=hidden;fontColor=#ffffff;strokeColor=#CCE5FF;" parent="u9htjXkEXDedvNMwMcPZ-75" vertex="1">
                    <mxGeometry x="30" width="150" height="30" as="geometry">
                        <mxRectangle width="150" height="30" as="alternateBounds"/>
                    </mxGeometry>
                </mxCell>
                <mxCell id="bZAwkXbdGldh79CGy7eX-28" value="" style="shape=partialRectangle;collapsible=0;dropTarget=0;pointerEvents=0;fillColor=#0050ef;top=0;left=0;bottom=0;right=0;points=[[0,0.5],[1,0.5]];portConstraint=eastwest;fontColor=#ffffff;strokeColor=#CCE5FF;" parent="u9htjXkEXDedvNMwMcPZ-74" vertex="1">
                    <mxGeometry y="60" width="180" height="30" as="geometry"/>
                </mxCell>
                <mxCell id="bZAwkXbdGldh79CGy7eX-29" value="" style="shape=partialRectangle;connectable=0;fillColor=#0050ef;top=0;left=0;bottom=0;right=0;editable=1;overflow=hidden;fontColor=#ffffff;strokeColor=#CCE5FF;" parent="bZAwkXbdGldh79CGy7eX-28" vertex="1">
                    <mxGeometry width="30" height="30" as="geometry">
                        <mxRectangle width="30" height="30" as="alternateBounds"/>
                    </mxGeometry>
                </mxCell>
                <mxCell id="bZAwkXbdGldh79CGy7eX-30" value="features_description" style="shape=partialRectangle;connectable=0;fillColor=#0050ef;top=0;left=0;bottom=0;right=0;align=left;spacingLeft=6;overflow=hidden;fontColor=#ffffff;strokeColor=#CCE5FF;" parent="bZAwkXbdGldh79CGy7eX-28" vertex="1">
                    <mxGeometry x="30" width="150" height="30" as="geometry">
                        <mxRectangle width="150" height="30" as="alternateBounds"/>
                    </mxGeometry>
                </mxCell>
                <mxCell id="u9htjXkEXDedvNMwMcPZ-78" value="" style="shape=partialRectangle;collapsible=0;dropTarget=0;pointerEvents=0;fillColor=#0050ef;top=0;left=0;bottom=0;right=0;points=[[0,0.5],[1,0.5]];portConstraint=eastwest;fontColor=#ffffff;strokeColor=#CCE5FF;" parent="u9htjXkEXDedvNMwMcPZ-74" vertex="1">
                    <mxGeometry y="90" width="180" height="30" as="geometry"/>
                </mxCell>
                <mxCell id="u9htjXkEXDedvNMwMcPZ-79" value="" style="shape=partialRectangle;connectable=0;fillColor=#0050ef;top=0;left=0;bottom=0;right=0;editable=1;overflow=hidden;fontColor=#ffffff;strokeColor=#CCE5FF;" parent="u9htjXkEXDedvNMwMcPZ-78" vertex="1">
                    <mxGeometry width="30" height="30" as="geometry">
                        <mxRectangle width="30" height="30" as="alternateBounds"/>
                    </mxGeometry>
                </mxCell>
                <mxCell id="u9htjXkEXDedvNMwMcPZ-80" value="prefecture" style="shape=partialRectangle;connectable=0;fillColor=#0050ef;top=0;left=0;bottom=0;right=0;align=left;spacingLeft=6;overflow=hidden;fontColor=#ffffff;strokeColor=#CCE5FF;" parent="u9htjXkEXDedvNMwMcPZ-78" vertex="1">
                    <mxGeometry x="30" width="150" height="30" as="geometry">
                        <mxRectangle width="150" height="30" as="alternateBounds"/>
                    </mxGeometry>
                </mxCell>
                <mxCell id="bZAwkXbdGldh79CGy7eX-22" value="" style="shape=partialRectangle;collapsible=0;dropTarget=0;pointerEvents=0;fillColor=#0050ef;top=0;left=0;bottom=0;right=0;points=[[0,0.5],[1,0.5]];portConstraint=eastwest;fontColor=#ffffff;strokeColor=#CCE5FF;" parent="u9htjXkEXDedvNMwMcPZ-74" vertex="1">
                    <mxGeometry y="120" width="180" height="30" as="geometry"/>
                </mxCell>
                <mxCell id="bZAwkXbdGldh79CGy7eX-23" value="" style="shape=partialRectangle;connectable=0;fillColor=#0050ef;top=0;left=0;bottom=0;right=0;editable=1;overflow=hidden;fontColor=#ffffff;strokeColor=#CCE5FF;" parent="bZAwkXbdGldh79CGy7eX-22" vertex="1">
                    <mxGeometry width="30" height="30" as="geometry">
                        <mxRectangle width="30" height="30" as="alternateBounds"/>
                    </mxGeometry>
                </mxCell>
                <mxCell id="bZAwkXbdGldh79CGy7eX-24" value="city" style="shape=partialRectangle;connectable=0;fillColor=#0050ef;top=0;left=0;bottom=0;right=0;align=left;spacingLeft=6;overflow=hidden;fontColor=#ffffff;strokeColor=#CCE5FF;" parent="bZAwkXbdGldh79CGy7eX-22" vertex="1">
                    <mxGeometry x="30" width="150" height="30" as="geometry">
                        <mxRectangle width="150" height="30" as="alternateBounds"/>
                    </mxGeometry>
                </mxCell>
                <mxCell id="u9htjXkEXDedvNMwMcPZ-81" value="" style="shape=partialRectangle;collapsible=0;dropTarget=0;pointerEvents=0;fillColor=#0050ef;top=0;left=0;bottom=0;right=0;points=[[0,0.5],[1,0.5]];portConstraint=eastwest;fontColor=#ffffff;strokeColor=#CCE5FF;" parent="u9htjXkEXDedvNMwMcPZ-74" vertex="1">
                    <mxGeometry y="150" width="180" height="30" as="geometry"/>
                </mxCell>
                <mxCell id="u9htjXkEXDedvNMwMcPZ-82" value="" style="shape=partialRectangle;connectable=0;fillColor=#0050ef;top=0;left=0;bottom=0;right=0;editable=1;overflow=hidden;fontColor=#ffffff;strokeColor=#CCE5FF;" parent="u9htjXkEXDedvNMwMcPZ-81" vertex="1">
                    <mxGeometry width="30" height="30" as="geometry">
                        <mxRectangle width="30" height="30" as="alternateBounds"/>
                    </mxGeometry>
                </mxCell>
                <mxCell id="u9htjXkEXDedvNMwMcPZ-83" value="img_sauce" style="shape=partialRectangle;connectable=0;fillColor=#0050ef;top=0;left=0;bottom=0;right=0;align=left;spacingLeft=6;overflow=hidden;fontColor=#ffffff;strokeColor=#CCE5FF;" parent="u9htjXkEXDedvNMwMcPZ-81" vertex="1">
                    <mxGeometry x="30" width="150" height="30" as="geometry">
                        <mxRectangle width="150" height="30" as="alternateBounds"/>
                    </mxGeometry>
                </mxCell>
                <mxCell id="u9htjXkEXDedvNMwMcPZ-84" value="" style="shape=partialRectangle;collapsible=0;dropTarget=0;pointerEvents=0;fillColor=#0050ef;top=0;left=0;bottom=0;right=0;points=[[0,0.5],[1,0.5]];portConstraint=eastwest;fontColor=#ffffff;strokeColor=#CCE5FF;" parent="u9htjXkEXDedvNMwMcPZ-74" vertex="1">
                    <mxGeometry y="180" width="180" height="30" as="geometry"/>
                </mxCell>
                <mxCell id="u9htjXkEXDedvNMwMcPZ-85" value="" style="shape=partialRectangle;connectable=0;fillColor=#0050ef;top=0;left=0;bottom=0;right=0;editable=1;overflow=hidden;fontColor=#ffffff;strokeColor=#CCE5FF;" parent="u9htjXkEXDedvNMwMcPZ-84" vertex="1">
                    <mxGeometry width="30" height="30" as="geometry">
                        <mxRectangle width="30" height="30" as="alternateBounds"/>
                    </mxGeometry>
                </mxCell>
                <mxCell id="u9htjXkEXDedvNMwMcPZ-86" value="vector" style="shape=partialRectangle;connectable=0;fillColor=#0050ef;top=0;left=0;bottom=0;right=0;align=left;spacingLeft=6;overflow=hidden;fontColor=#ffffff;strokeColor=#CCE5FF;" parent="u9htjXkEXDedvNMwMcPZ-84" vertex="1">
                    <mxGeometry x="30" width="150" height="30" as="geometry">
                        <mxRectangle width="150" height="30" as="alternateBounds"/>
                    </mxGeometry>
                </mxCell>
                <mxCell id="bZAwkXbdGldh79CGy7eX-25" value="" style="shape=partialRectangle;collapsible=0;dropTarget=0;pointerEvents=0;fillColor=#0050ef;top=0;left=0;bottom=0;right=0;points=[[0,0.5],[1,0.5]];portConstraint=eastwest;fontColor=#ffffff;strokeColor=#CCE5FF;" parent="u9htjXkEXDedvNMwMcPZ-74" vertex="1">
                    <mxGeometry y="210" width="180" height="30" as="geometry"/>
                </mxCell>
                <mxCell id="bZAwkXbdGldh79CGy7eX-26" value="" style="shape=partialRectangle;connectable=0;fillColor=#0050ef;top=0;left=0;bottom=0;right=0;editable=1;overflow=hidden;fontColor=#ffffff;strokeColor=#CCE5FF;" parent="bZAwkXbdGldh79CGy7eX-25" vertex="1">
                    <mxGeometry width="30" height="30" as="geometry">
                        <mxRectangle width="30" height="30" as="alternateBounds"/>
                    </mxGeometry>
                </mxCell>
                <mxCell id="bZAwkXbdGldh79CGy7eX-27" value="found_flag" style="shape=partialRectangle;connectable=0;fillColor=#0050ef;top=0;left=0;bottom=0;right=0;align=left;spacingLeft=6;overflow=hidden;fontColor=#ffffff;strokeColor=#CCE5FF;" parent="bZAwkXbdGldh79CGy7eX-25" vertex="1">
                    <mxGeometry x="30" width="150" height="30" as="geometry">
                        <mxRectangle width="150" height="30" as="alternateBounds"/>
                    </mxGeometry>
                </mxCell>
                <mxCell id="bZAwkXbdGldh79CGy7eX-31" value="" style="shape=partialRectangle;collapsible=0;dropTarget=0;pointerEvents=0;fillColor=#0050ef;top=0;left=0;bottom=0;right=0;points=[[0,0.5],[1,0.5]];portConstraint=eastwest;fontColor=#ffffff;strokeColor=#CCE5FF;" parent="u9htjXkEXDedvNMwMcPZ-74" vertex="1">
                    <mxGeometry y="240" width="180" height="30" as="geometry"/>
                </mxCell>
                <mxCell id="bZAwkXbdGldh79CGy7eX-32" value="" style="shape=partialRectangle;connectable=0;fillColor=#0050ef;top=0;left=0;bottom=0;right=0;editable=1;overflow=hidden;fontColor=#ffffff;strokeColor=#CCE5FF;" parent="bZAwkXbdGldh79CGy7eX-31" vertex="1">
                    <mxGeometry width="30" height="30" as="geometry">
                        <mxRectangle width="30" height="30" as="alternateBounds"/>
                    </mxGeometry>
                </mxCell>
                <mxCell id="bZAwkXbdGldh79CGy7eX-33" value="found_time" style="shape=partialRectangle;connectable=0;fillColor=#0050ef;top=0;left=0;bottom=0;right=0;align=left;spacingLeft=6;overflow=hidden;fontColor=#ffffff;strokeColor=#CCE5FF;" parent="bZAwkXbdGldh79CGy7eX-31" vertex="1">
                    <mxGeometry x="30" width="150" height="30" as="geometry">
                        <mxRectangle width="150" height="30" as="alternateBounds"/>
                    </mxGeometry>
                </mxCell>
                <mxCell id="bZAwkXbdGldh79CGy7eX-66" style="edgeStyle=orthogonalEdgeStyle;rounded=0;orthogonalLoop=1;jettySize=auto;html=1;startArrow=classic;startFill=1;fillColor=#008a00;strokeColor=#CCE5FF;" parent="1" source="bZAwkXbdGldh79CGy7eX-8" target="iAAvRlnv8EcnlrwnSIx1-5" edge="1">
                    <mxGeometry relative="1" as="geometry"/>
                </mxCell>
                <mxCell id="bZAwkXbdGldh79CGy7eX-80" style="edgeStyle=orthogonalEdgeStyle;rounded=0;orthogonalLoop=1;jettySize=auto;html=1;startArrow=none;startFill=0;fillColor=#008a00;strokeColor=#CCE5FF;" parent="1" source="bZAwkXbdGldh79CGy7eX-8" target="bZAwkXbdGldh79CGy7eX-44" edge="1">
                    <mxGeometry relative="1" as="geometry">
                        <Array as="points">
                            <mxPoint x="855" y="1540"/>
                            <mxPoint x="855" y="1630"/>
                        </Array>
                    </mxGeometry>
                </mxCell>
                <mxCell id="bZAwkXbdGldh79CGy7eX-8" value="ã­ã°ã¤ã³" style="swimlane;fontStyle=0;childLayout=stackLayout;horizontal=1;startSize=26;horizontalStack=0;resizeParent=1;resizeParentMax=0;resizeLast=0;collapsible=1;marginBottom=0;align=center;fontSize=14;fillColor=#008a00;fontColor=#ffffff;strokeColor=#CCE5FF;" parent="1" vertex="1">
                    <mxGeometry x="575" y="1471" width="160" height="86" as="geometry">
                        <mxRectangle x="1320" y="1745" width="90" height="26" as="alternateBounds"/>
                    </mxGeometry>
                </mxCell>
                <mxCell id="bZAwkXbdGldh79CGy7eX-9" value="idã®å¥å(mail)&#10;" style="text;fillColor=#008a00;spacingLeft=4;spacingRight=4;overflow=hidden;rotatable=0;points=[[0,0.5],[1,0.5]];portConstraint=eastwest;fontSize=12;fontColor=#ffffff;strokeColor=#CCE5FF;" parent="bZAwkXbdGldh79CGy7eX-8" vertex="1">
                    <mxGeometry y="26" width="160" height="30" as="geometry"/>
                </mxCell>
                <mxCell id="bZAwkXbdGldh79CGy7eX-10" value="ãã¹ã¯ã¼ã" style="text;fillColor=#008a00;spacingLeft=4;spacingRight=4;overflow=hidden;rotatable=0;points=[[0,0.5],[1,0.5]];portConstraint=eastwest;fontSize=12;fontColor=#ffffff;strokeColor=#CCE5FF;" parent="bZAwkXbdGldh79CGy7eX-8" vertex="1">
                    <mxGeometry y="56" width="160" height="30" as="geometry"/>
                </mxCell>
                <mxCell id="iAAvRlnv8EcnlrwnSIx1-5" value="memberInformation" style="swimlane;fontStyle=0;childLayout=stackLayout;horizontal=1;startSize=26;horizontalStack=0;resizeParent=1;resizeParentMax=0;resizeLast=0;collapsible=1;marginBottom=0;align=center;fontSize=14;fillColor=#008a00;fontColor=#ffffff;strokeColor=#CCE5FF;" parent="1" vertex="1">
                    <mxGeometry x="575" y="1620" width="160" height="240" as="geometry"/>
                </mxCell>
                <mxCell id="iAAvRlnv8EcnlrwnSIx1-6" value="userFnameÂ Â " style="text;fillColor=#008a00;spacingLeft=4;spacingRight=4;overflow=hidden;rotatable=0;points=[[0,0.5],[1,0.5]];portConstraint=eastwest;fontSize=12;fontColor=#ffffff;strokeColor=#CCE5FF;" parent="iAAvRlnv8EcnlrwnSIx1-5" vertex="1">
                    <mxGeometry y="26" width="160" height="30" as="geometry"/>
                </mxCell>
                <mxCell id="iAAvRlnv8EcnlrwnSIx1-7" value="userLname" style="text;fillColor=#008a00;spacingLeft=4;spacingRight=4;overflow=hidden;rotatable=0;points=[[0,0.5],[1,0.5]];portConstraint=eastwest;fontSize=12;fontColor=#ffffff;strokeColor=#CCE5FF;" parent="iAAvRlnv8EcnlrwnSIx1-5" vertex="1">
                    <mxGeometry y="56" width="160" height="30" as="geometry"/>
                </mxCell>
                <mxCell id="iAAvRlnv8EcnlrwnSIx1-8" value="userNickName" style="text;fillColor=#008a00;spacingLeft=4;spacingRight=4;overflow=hidden;rotatable=0;points=[[0,0.5],[1,0.5]];portConstraint=eastwest;fontSize=12;fontColor=#ffffff;strokeColor=#CCE5FF;" parent="iAAvRlnv8EcnlrwnSIx1-5" vertex="1">
                    <mxGeometry y="86" width="160" height="30" as="geometry"/>
                </mxCell>
                <mxCell id="iAAvRlnv8EcnlrwnSIx1-9" value="mailÂ " style="text;fillColor=#008a00;spacingLeft=4;spacingRight=4;overflow=hidden;rotatable=0;points=[[0,0.5],[1,0.5]];portConstraint=eastwest;fontSize=12;fontColor=#ffffff;strokeColor=#CCE5FF;" parent="iAAvRlnv8EcnlrwnSIx1-5" vertex="1">
                    <mxGeometry y="116" width="160" height="30" as="geometry"/>
                </mxCell>
                <mxCell id="iAAvRlnv8EcnlrwnSIx1-10" value="tell" style="text;fillColor=#008a00;spacingLeft=4;spacingRight=4;overflow=hidden;rotatable=0;points=[[0,0.5],[1,0.5]];portConstraint=eastwest;fontSize=12;fontColor=#ffffff;strokeColor=#CCE5FF;" parent="iAAvRlnv8EcnlrwnSIx1-5" vertex="1">
                    <mxGeometry y="146" width="160" height="30" as="geometry"/>
                </mxCell>
                <mxCell id="iAAvRlnv8EcnlrwnSIx1-11" value="prefecture" style="text;fillColor=#008a00;spacingLeft=4;spacingRight=4;overflow=hidden;rotatable=0;points=[[0,0.5],[1,0.5]];portConstraint=eastwest;fontSize=12;fontColor=#ffffff;strokeColor=#CCE5FF;" parent="iAAvRlnv8EcnlrwnSIx1-5" vertex="1">
                    <mxGeometry y="176" width="160" height="30" as="geometry"/>
                </mxCell>
                <mxCell id="iAAvRlnv8EcnlrwnSIx1-12" value="citty" style="text;fillColor=#008a00;spacingLeft=4;spacingRight=4;overflow=hidden;rotatable=0;points=[[0,0.5],[1,0.5]];portConstraint=eastwest;fontSize=12;fontColor=#ffffff;strokeColor=#CCE5FF;" parent="iAAvRlnv8EcnlrwnSIx1-5" vertex="1">
                    <mxGeometry y="206" width="160" height="34" as="geometry"/>
                </mxCell>
                <mxCell id="bZAwkXbdGldh79CGy7eX-14" style="edgeStyle=orthogonalEdgeStyle;shape=link;rounded=0;orthogonalLoop=1;jettySize=auto;html=1;dashed=1;fillColor=#0050ef;strokeColor=#CCE5FF;" parent="1" source="bZAwkXbdGldh79CGy7eX-5" target="u9htjXkEXDedvNMwMcPZ-84" edge="1">
                    <mxGeometry relative="1" as="geometry"/>
                </mxCell>
                <mxCell id="iAAvRlnv8EcnlrwnSIx1-30" style="edgeStyle=orthogonalEdgeStyle;rounded=0;orthogonalLoop=1;jettySize=auto;html=1;fillColor=#008a00;strokeColor=#CCE5FF;" parent="1" source="iAAvRlnv8EcnlrwnSIx1-18" target="iAAvRlnv8EcnlrwnSIx1-26" edge="1">
                    <mxGeometry relative="1" as="geometry"/>
                </mxCell>
                <mxCell id="BRLHQj3VwvyjZPWEDgBD-8" style="edgeStyle=orthogonalEdgeStyle;rounded=0;orthogonalLoop=1;jettySize=auto;html=1;entryX=0.5;entryY=1;entryDx=0;entryDy=0;fillColor=#008a00;strokeColor=#CCE5FF;" parent="1" source="iAAvRlnv8EcnlrwnSIx1-18" target="BRLHQj3VwvyjZPWEDgBD-2" edge="1">
                    <mxGeometry relative="1" as="geometry"/>
                </mxCell>
                <mxCell id="iAAvRlnv8EcnlrwnSIx1-18" value="myPage" style="swimlane;fontStyle=0;childLayout=stackLayout;horizontal=1;startSize=26;horizontalStack=0;resizeParent=1;resizeParentMax=0;resizeLast=0;collapsible=1;marginBottom=0;align=center;fontSize=14;fillColor=#008a00;fontColor=#ffffff;strokeColor=#CCE5FF;" parent="1" vertex="1">
                    <mxGeometry x="365" y="1162" width="160" height="116" as="geometry"/>
                </mxCell>
                <mxCell id="bZAwkXbdGldh79CGy7eX-77" value="ãããä¸è¦§" style="text;fillColor=#008a00;spacingLeft=4;spacingRight=4;overflow=hidden;rotatable=0;points=[[0,0.5],[1,0.5]];portConstraint=eastwest;fontSize=12;fontColor=#ffffff;strokeColor=#CCE5FF;" parent="iAAvRlnv8EcnlrwnSIx1-18" vertex="1">
                    <mxGeometry y="26" width="160" height="30" as="geometry"/>
                </mxCell>
                <mxCell id="bZAwkXbdGldh79CGy7eX-79" value="ä¼å¡æå ±å¤æ´" style="text;fillColor=#008a00;spacingLeft=4;spacingRight=4;overflow=hidden;rotatable=0;points=[[0,0.5],[1,0.5]];portConstraint=eastwest;fontSize=12;fontColor=#ffffff;strokeColor=#CCE5FF;" parent="iAAvRlnv8EcnlrwnSIx1-18" vertex="1">
                    <mxGeometry y="56" width="160" height="30" as="geometry"/>
                </mxCell>
                <mxCell id="bZAwkXbdGldh79CGy7eX-84" value="æ°è¦ã¹ã¬ãã" style="text;fillColor=#008a00;spacingLeft=4;spacingRight=4;overflow=hidden;rotatable=0;points=[[0,0.5],[1,0.5]];portConstraint=eastwest;fontSize=12;fontColor=#ffffff;strokeColor=#CCE5FF;" parent="iAAvRlnv8EcnlrwnSIx1-18" vertex="1">
                    <mxGeometry y="86" width="160" height="30" as="geometry"/>
                </mxCell>
                <mxCell id="iAAvRlnv8EcnlrwnSIx1-26" value="ãããã®æå ±" style="swimlane;fontStyle=0;childLayout=stackLayout;horizontal=1;startSize=26;horizontalStack=0;resizeParent=1;resizeParentMax=0;resizeLast=0;collapsible=1;marginBottom=0;align=center;fontSize=14;fillColor=#008a00;fontColor=#ffffff;strokeColor=#CCE5FF;" parent="1" vertex="1">
                    <mxGeometry x="120" y="1132" width="160" height="176" as="geometry"/>
                </mxCell>
                <mxCell id="iAAvRlnv8EcnlrwnSIx1-27" value="ãããã®ååÂ Â Â &#10;" style="text;fillColor=#008a00;spacingLeft=4;spacingRight=4;overflow=hidden;rotatable=0;points=[[0,0.5],[1,0.5]];portConstraint=eastwest;fontSize=12;fontColor=#ffffff;strokeColor=#CCE5FF;" parent="iAAvRlnv8EcnlrwnSIx1-26" vertex="1">
                    <mxGeometry y="26" width="160" height="30" as="geometry"/>
                </mxCell>
                <mxCell id="iAAvRlnv8EcnlrwnSIx1-28" value="ç¬ç¨®" style="text;fillColor=#008a00;spacingLeft=4;spacingRight=4;overflow=hidden;rotatable=0;points=[[0,0.5],[1,0.5]];portConstraint=eastwest;fontSize=12;fontColor=#ffffff;strokeColor=#CCE5FF;" parent="iAAvRlnv8EcnlrwnSIx1-26" vertex="1">
                    <mxGeometry y="56" width="160" height="30" as="geometry"/>
                </mxCell>
                <mxCell id="iAAvRlnv8EcnlrwnSIx1-29" value="ç¬ã®èª¬æ" style="text;fillColor=#008a00;spacingLeft=4;spacingRight=4;overflow=hidden;rotatable=0;points=[[0,0.5],[1,0.5]];portConstraint=eastwest;fontSize=12;fontColor=#ffffff;strokeColor=#CCE5FF;" parent="iAAvRlnv8EcnlrwnSIx1-26" vertex="1">
                    <mxGeometry y="86" width="160" height="30" as="geometry"/>
                </mxCell>
                <mxCell id="iAAvRlnv8EcnlrwnSIx1-68" value="button(ç¢ºå®)" style="text;fillColor=#008a00;spacingLeft=4;spacingRight=4;overflow=hidden;rotatable=0;points=[[0,0.5],[1,0.5]];portConstraint=eastwest;fontSize=12;fontColor=#ffffff;strokeColor=#CCE5FF;" parent="iAAvRlnv8EcnlrwnSIx1-26" vertex="1">
                    <mxGeometry y="116" width="160" height="30" as="geometry"/>
                </mxCell>
                <mxCell id="iAAvRlnv8EcnlrwnSIx1-50" value="button(è¿·å­)" style="text;fillColor=#008a00;spacingLeft=4;spacingRight=4;overflow=hidden;rotatable=0;points=[[0,0.5],[1,0.5]];portConstraint=eastwest;fontSize=12;fontColor=#ffffff;strokeColor=#CCE5FF;" parent="iAAvRlnv8EcnlrwnSIx1-26" vertex="1">
                    <mxGeometry y="146" width="160" height="30" as="geometry"/>
                </mxCell>
                <mxCell id="17" style="edgeStyle=orthogonalEdgeStyle;rounded=0;orthogonalLoop=1;jettySize=auto;html=1;exitX=1;exitY=0.5;exitDx=0;exitDy=0;entryX=1;entryY=0.5;entryDx=0;entryDy=0;strokeColor=#CCE5FF;" parent="1" source="iAAvRlnv8EcnlrwnSIx1-46" target="u9htjXkEXDedvNMwMcPZ-78" edge="1">
                    <mxGeometry relative="1" as="geometry"/>
                </mxCell>
                <mxCell id="iAAvRlnv8EcnlrwnSIx1-46" value="serchPet" style="swimlane;fontStyle=0;childLayout=stackLayout;horizontal=1;startSize=25;horizontalStack=0;resizeParent=1;resizeParentMax=0;resizeLast=0;collapsible=1;marginBottom=0;align=center;fontSize=14;fillColor=#008a00;fontColor=#ffffff;strokeColor=#CCE5FF;" parent="1" vertex="1">
                    <mxGeometry x="950" y="1103" width="160" height="145" as="geometry"/>
                </mxCell>
                <mxCell id="iAAvRlnv8EcnlrwnSIx1-47" value="imgUpLoad (required)" style="text;fillColor=#008a00;spacingLeft=4;spacingRight=4;overflow=hidden;rotatable=0;points=[[0,0.5],[1,0.5]];portConstraint=eastwest;fontSize=12;fontColor=#ffffff;strokeColor=#CCE5FF;" parent="iAAvRlnv8EcnlrwnSIx1-46" vertex="1">
                    <mxGeometry y="25" width="160" height="30" as="geometry"/>
                </mxCell>
                <mxCell id="iAAvRlnv8EcnlrwnSIx1-48" value="prefecture (required)" style="text;fillColor=#008a00;spacingLeft=4;spacingRight=4;overflow=hidden;rotatable=0;points=[[0,0.5],[1,0.5]];portConstraint=eastwest;fontSize=12;fontColor=#ffffff;strokeColor=#CCE5FF;" parent="iAAvRlnv8EcnlrwnSIx1-46" vertex="1">
                    <mxGeometry y="55" width="160" height="30" as="geometry"/>
                </mxCell>
                <mxCell id="iAAvRlnv8EcnlrwnSIx1-49" value="city (required)" style="text;fillColor=#008a00;spacingLeft=4;spacingRight=4;overflow=hidden;rotatable=0;points=[[0,0.5],[1,0.5]];portConstraint=eastwest;fontSize=12;fontColor=#ffffff;strokeColor=#CCE5FF;" parent="iAAvRlnv8EcnlrwnSIx1-46" vertex="1">
                    <mxGeometry y="85" width="160" height="30" as="geometry"/>
                </mxCell>
                <mxCell id="iAAvRlnv8EcnlrwnSIx1-53" value="featureDescription" style="text;fillColor=#008a00;spacingLeft=4;spacingRight=4;overflow=hidden;rotatable=0;points=[[0,0.5],[1,0.5]];portConstraint=eastwest;fontSize=12;fontColor=#ffffff;strokeColor=#CCE5FF;" parent="iAAvRlnv8EcnlrwnSIx1-46" vertex="1">
                    <mxGeometry y="115" width="160" height="30" as="geometry"/>
                </mxCell>
                <mxCell id="bZAwkXbdGldh79CGy7eX-18" value="æ°è¦ç»é²" style="text;html=1;fillColor=#008a00;align=center;verticalAlign=middle;whiteSpace=wrap;rounded=0;fontColor=#ffffff;strokeColor=#CCE5FF;" parent="1" vertex="1">
                    <mxGeometry x="655" y="1580" width="70" height="30" as="geometry"/>
                </mxCell>
                <mxCell id="bZAwkXbdGldh79CGy7eX-41" value="thread(index)" style="swimlane;fontStyle=0;childLayout=stackLayout;horizontal=1;startSize=26;horizontalStack=0;resizeParent=1;resizeParentMax=0;resizeLast=0;collapsible=1;marginBottom=0;align=center;fontSize=14;fillColor=#008a00;fontColor=#ffffff;strokeColor=#CCE5FF;" parent="1" vertex="1">
                    <mxGeometry x="745" y="1180" width="160" height="116" as="geometry"/>
                </mxCell>
                <mxCell id="bZAwkXbdGldh79CGy7eX-54" value="ãã¤ãã¼ã¸" style="text;fillColor=#008a00;spacingLeft=4;spacingRight=4;overflow=hidden;rotatable=0;points=[[0,0.5],[1,0.5]];portConstraint=eastwest;fontSize=12;fontColor=#ffffff;strokeColor=#CCE5FF;" parent="bZAwkXbdGldh79CGy7eX-41" vertex="1">
                    <mxGeometry y="26" width="160" height="30" as="geometry"/>
                </mxCell>
                <mxCell id="bZAwkXbdGldh79CGy7eX-55" value="è¿·å­çºè¦" style="text;fillColor=#008a00;spacingLeft=4;spacingRight=4;overflow=hidden;rotatable=0;points=[[0,0.5],[1,0.5]];portConstraint=eastwest;fontSize=12;fontColor=#ffffff;strokeColor=#CCE5FF;" parent="bZAwkXbdGldh79CGy7eX-41" vertex="1">
                    <mxGeometry y="56" width="160" height="30" as="geometry"/>
                </mxCell>
                <mxCell id="bZAwkXbdGldh79CGy7eX-42" value="ã¹ã¬ããä¸è¦§" style="text;fillColor=#008a00;spacingLeft=4;spacingRight=4;overflow=hidden;rotatable=0;points=[[0,0.5],[1,0.5]];portConstraint=eastwest;fontSize=12;fontColor=#ffffff;strokeColor=#CCE5FF;" parent="bZAwkXbdGldh79CGy7eX-41" vertex="1">
                    <mxGeometry y="86" width="160" height="30" as="geometry"/>
                </mxCell>
                <mxCell id="bZAwkXbdGldh79CGy7eX-43" value="replyIDãnoneã®æã®threadè¡¨ç¤º" style="ellipse;whiteSpace=wrap;html=1;align=center;dashed=1;fillColor=#008a00;fontColor=#ffffff;strokeColor=#CCE5FF;" parent="1" vertex="1">
                    <mxGeometry x="772.5" y="1127" width="105" height="50" as="geometry"/>
                </mxCell>
                <mxCell id="bZAwkXbdGldh79CGy7eX-44" value="threadDetail" style="swimlane;fontStyle=0;childLayout=stackLayout;horizontal=1;startSize=26;horizontalStack=0;resizeParent=1;resizeParentMax=0;resizeLast=0;collapsible=1;marginBottom=0;align=center;fontSize=14;fillColor=#008a00;fontColor=#ffffff;strokeColor=#CCE5FF;" parent="1" vertex="1">
                    <mxGeometry x="950" y="1620" width="160" height="86" as="geometry"/>
                </mxCell>
                <mxCell id="bZAwkXbdGldh79CGy7eX-46" value="replyãæ¶ãã" style="text;fillColor=#008a00;spacingLeft=4;spacingRight=4;overflow=hidden;rotatable=0;points=[[0,0.5],[1,0.5]];portConstraint=eastwest;fontSize=12;fontColor=#ffffff;strokeColor=#CCE5FF;" parent="bZAwkXbdGldh79CGy7eX-44" vertex="1">
                    <mxGeometry y="26" width="160" height="30" as="geometry"/>
                </mxCell>
                <mxCell id="bZAwkXbdGldh79CGy7eX-47" value="ã¹ã¬ãããéãã" style="text;fillColor=#008a00;spacingLeft=4;spacingRight=4;overflow=hidden;rotatable=0;points=[[0,0.5],[1,0.5]];portConstraint=eastwest;fontSize=12;fontColor=#ffffff;strokeColor=#CCE5FF;" parent="bZAwkXbdGldh79CGy7eX-44" vertex="1">
                    <mxGeometry y="56" width="160" height="30" as="geometry"/>
                </mxCell>
                <mxCell id="bZAwkXbdGldh79CGy7eX-48" value="replyIDãthreadã«ãªã£ã¦ããã®ãè¡¨ç¤º" style="ellipse;whiteSpace=wrap;html=1;align=center;dashed=1;fillColor=#008a00;fontColor=#ffffff;strokeColor=#CCE5FF;" parent="1" vertex="1">
                    <mxGeometry x="835" y="1651" width="110" height="54" as="geometry"/>
                </mxCell>
                <mxCell id="bZAwkXbdGldh79CGy7eX-50" value="" style="whiteSpace=wrap;html=1;aspect=fixed;" parent="1" vertex="1">
                    <mxGeometry x="1210" y="1970" width="250" height="250" as="geometry"/>
                </mxCell>
                <mxCell id="bZAwkXbdGldh79CGy7eX-51" value="ã¹ã¬ããï¼" style="rounded=0;whiteSpace=wrap;html=1;" parent="1" vertex="1">
                    <mxGeometry x="1215" y="1994" width="240" height="60" as="geometry"/>
                </mxCell>
                <mxCell id="bZAwkXbdGldh79CGy7eX-52" value="ã¹ã¬ãã2" style="rounded=0;whiteSpace=wrap;html=1;" parent="1" vertex="1">
                    <mxGeometry x="1215" y="2064" width="240" height="60" as="geometry"/>
                </mxCell>
                <mxCell id="bZAwkXbdGldh79CGy7eX-53" value="ã¹ã¬ãã3" style="rounded=0;whiteSpace=wrap;html=1;" parent="1" vertex="1">
                    <mxGeometry x="1215" y="2134" width="240" height="60" as="geometry"/>
                </mxCell>
                <mxCell id="iAAvRlnv8EcnlrwnSIx1-69" value="ããããã¼ã¸ã®ã¤ã¡ã¼ã¸" style="ellipse;whiteSpace=wrap;html=1;align=center;dashed=1;" parent="1" vertex="1">
                    <mxGeometry x="1340" y="1890" width="190" height="74" as="geometry"/>
                </mxCell>
                <mxCell id="bZAwkXbdGldh79CGy7eX-57" style="edgeStyle=orthogonalEdgeStyle;rounded=0;orthogonalLoop=1;jettySize=auto;html=1;exitX=1;exitY=0.5;exitDx=0;exitDy=0;startArrow=none;startFill=0;fillColor=#008a00;strokeColor=#CCE5FF;" parent="1" source="bZAwkXbdGldh79CGy7eX-55" target="iAAvRlnv8EcnlrwnSIx1-46" edge="1">
                    <mxGeometry relative="1" as="geometry"/>
                </mxCell>
                <mxCell id="bZAwkXbdGldh79CGy7eX-64" style="edgeStyle=orthogonalEdgeStyle;rounded=0;orthogonalLoop=1;jettySize=auto;html=1;startArrow=none;startFill=0;fillColor=#008a00;strokeColor=#CCE5FF;" parent="1" source="bZAwkXbdGldh79CGy7eX-61" target="iAAvRlnv8EcnlrwnSIx1-18" edge="1">
                    <mxGeometry relative="1" as="geometry"/>
                </mxCell>
                <mxCell id="bZAwkXbdGldh79CGy7eX-65" style="edgeStyle=orthogonalEdgeStyle;rounded=0;orthogonalLoop=1;jettySize=auto;html=1;startArrow=none;startFill=0;fillColor=#008a00;strokeColor=#CCE5FF;" parent="1" source="bZAwkXbdGldh79CGy7eX-61" target="bZAwkXbdGldh79CGy7eX-8" edge="1">
                    <mxGeometry relative="1" as="geometry"/>
                </mxCell>
                <mxCell id="bZAwkXbdGldh79CGy7eX-61" value="ã­ã°ã¤ã³" style="strokeWidth=2;html=1;shape=mxgraph.flowchart.decision;whiteSpace=wrap;fillColor=#008a00;fontColor=#ffffff;strokeColor=#CCE5FF;" parent="1" vertex="1">
                    <mxGeometry x="605" y="1170" width="100" height="100" as="geometry"/>
                </mxCell>
                <mxCell id="bZAwkXbdGldh79CGy7eX-62" style="edgeStyle=orthogonalEdgeStyle;rounded=0;orthogonalLoop=1;jettySize=auto;html=1;startArrow=none;startFill=0;fillColor=#008a00;strokeColor=#CCE5FF;" parent="1" source="bZAwkXbdGldh79CGy7eX-54" target="bZAwkXbdGldh79CGy7eX-61" edge="1">
                    <mxGeometry relative="1" as="geometry"/>
                </mxCell>
                <mxCell id="bZAwkXbdGldh79CGy7eX-67" style="edgeStyle=orthogonalEdgeStyle;rounded=0;orthogonalLoop=1;jettySize=auto;html=1;startArrow=none;startFill=0;fillColor=#008a00;strokeColor=#CCE5FF;" parent="1" source="bZAwkXbdGldh79CGy7eX-9" target="iAAvRlnv8EcnlrwnSIx1-18" edge="1">
                    <mxGeometry relative="1" as="geometry"/>
                </mxCell>
                <mxCell id="BRLHQj3VwvyjZPWEDgBD-2" value="ä¼å¡æå ±å¤æ´" style="swimlane;fontStyle=0;childLayout=stackLayout;horizontal=1;startSize=26;horizontalStack=0;resizeParent=1;resizeParentMax=0;resizeLast=0;collapsible=1;marginBottom=0;align=center;fontSize=14;fillColor=#008a00;fontColor=#ffffff;strokeColor=#CCE5FF;" parent="1" vertex="1">
                    <mxGeometry x="205" y="970" width="160" height="56" as="geometry"/>
                </mxCell>
                <mxCell id="bZAwkXbdGldh79CGy7eX-71" value="YES" style="text;html=1;fillColor=#008a00;align=center;verticalAlign=middle;whiteSpace=wrap;rounded=0;fontColor=#ffffff;strokeColor=#CCE5FF;" parent="1" vertex="1">
                    <mxGeometry x="555" y="1195" width="40" height="20" as="geometry"/>
                </mxCell>
                <mxCell id="bZAwkXbdGldh79CGy7eX-74" style="edgeStyle=orthogonalEdgeStyle;rounded=0;orthogonalLoop=1;jettySize=auto;html=1;startArrow=none;startFill=0;fillColor=#008a00;strokeColor=#CCE5FF;" parent="1" source="bZAwkXbdGldh79CGy7eX-72" target="bZAwkXbdGldh79CGy7eX-44" edge="1">
                    <mxGeometry relative="1" as="geometry"/>
                </mxCell>
                <mxCell id="bZAwkXbdGldh79CGy7eX-75" style="edgeStyle=orthogonalEdgeStyle;rounded=0;orthogonalLoop=1;jettySize=auto;html=1;startArrow=none;startFill=0;fillColor=#008a00;strokeColor=#CCE5FF;" parent="1" source="bZAwkXbdGldh79CGy7eX-72" target="bZAwkXbdGldh79CGy7eX-8" edge="1">
                    <mxGeometry relative="1" as="geometry"/>
                </mxCell>
                <mxCell id="bZAwkXbdGldh79CGy7eX-72" value="ã­ã°ã¤ã³" style="strokeWidth=2;html=1;shape=mxgraph.flowchart.decision;whiteSpace=wrap;fillColor=#008a00;fontColor=#ffffff;strokeColor=#CCE5FF;" parent="1" vertex="1">
                    <mxGeometry x="980" y="1464" width="100" height="100" as="geometry"/>
                </mxCell>
                <mxCell id="bZAwkXbdGldh79CGy7eX-73" style="edgeStyle=orthogonalEdgeStyle;rounded=0;orthogonalLoop=1;jettySize=auto;html=1;startArrow=none;startFill=0;fillColor=#008a00;strokeColor=#CCE5FF;" parent="1" source="bZAwkXbdGldh79CGy7eX-42" target="bZAwkXbdGldh79CGy7eX-72" edge="1">
                    <mxGeometry relative="1" as="geometry"/>
                </mxCell>
                <mxCell id="bZAwkXbdGldh79CGy7eX-76" value="YES" style="text;html=1;fillColor=#008a00;align=center;verticalAlign=middle;whiteSpace=wrap;rounded=0;fontColor=#ffffff;strokeColor=#CCE5FF;" parent="1" vertex="1">
                    <mxGeometry x="1040" y="1580" width="40" height="20" as="geometry"/>
                </mxCell>
                <mxCell id="2" value="all required ããã¼" style="shape=ext;rounded=1;html=1;whiteSpace=wrap;dashed=1;dashPattern=1 4;fillColor=#0050ef;fontColor=#ffffff;strokeColor=#CCE5FF;" parent="1" vertex="1">
                    <mxGeometry x="340" y="150" width="120" height="80" as="geometry"/>
                </mxCell>
                <mxCell id="3" value="vectorã®ä»æ§ã¯ï¼" style="shape=ext;rounded=1;html=1;whiteSpace=wrap;dashed=1;dashPattern=1 4;fillColor=#0050ef;fontColor=#ffffff;strokeColor=#CCE5FF;" parent="1" vertex="1">
                    <mxGeometry x="1170" y="115" width="120" height="80" as="geometry"/>
                </mxCell>
                <mxCell id="18" style="edgeStyle=orthogonalEdgeStyle;rounded=0;orthogonalLoop=1;jettySize=auto;html=1;exitX=1;exitY=0.5;exitDx=0;exitDy=0;entryX=1;entryY=0.5;entryDx=0;entryDy=0;strokeColor=#CCE5FF;" parent="1" source="iAAvRlnv8EcnlrwnSIx1-49" target="u9htjXkEXDedvNMwMcPZ-74" edge="1">
                    <mxGeometry relative="1" as="geometry"/>
                </mxCell>
                <mxCell id="19" style="edgeStyle=orthogonalEdgeStyle;rounded=0;orthogonalLoop=1;jettySize=auto;html=1;exitX=1;exitY=0.5;exitDx=0;exitDy=0;entryX=1;entryY=0.5;entryDx=0;entryDy=0;strokeColor=#CCE5FF;" parent="1" source="iAAvRlnv8EcnlrwnSIx1-53" target="bZAwkXbdGldh79CGy7eX-28" edge="1">
                    <mxGeometry relative="1" as="geometry"/>
                </mxCell>
                <mxCell id="24" style="edgeStyle=orthogonalEdgeStyle;rounded=0;orthogonalLoop=1;jettySize=auto;html=1;exitX=0;exitY=0.5;exitDx=0;exitDy=0;entryX=1;entryY=0.5;entryDx=0;entryDy=0;strokeColor=#CCE5FF;startArrow=classic;startFill=1;endArrow=none;endFill=0;" parent="1" source="20" target="iAAvRlnv8EcnlrwnSIx1-47" edge="1">
                    <mxGeometry relative="1" as="geometry"/>
                </mxCell>
                <mxCell id="36" style="edgeStyle=orthogonalEdgeStyle;rounded=0;orthogonalLoop=1;jettySize=auto;html=1;exitX=0.5;exitY=0;exitDx=0;exitDy=0;entryX=0.5;entryY=1;entryDx=0;entryDy=0;startArrow=none;startFill=0;endArrow=classic;endFill=1;strokeColor=#CCE5FF;" parent="1" source="20" target="35" edge="1">
                    <mxGeometry relative="1" as="geometry"/>
                </mxCell>
                <mxCell id="20" value="ç»åã®ä¿å­" style="triangle;whiteSpace=wrap;html=1;strokeColor=#CCE5FF;" parent="1" vertex="1">
                    <mxGeometry x="1250" y="890" width="100" height="80" as="geometry"/>
                </mxCell>
                <mxCell id="21" value="ãã¯ãã«ã®è¨ç®" style="triangle;whiteSpace=wrap;html=1;strokeColor=#CCE5FF;" parent="1" vertex="1">
                    <mxGeometry x="1250" y="980" width="100" height="80" as="geometry"/>
                </mxCell>
                <mxCell id="23" style="edgeStyle=orthogonalEdgeStyle;rounded=0;orthogonalLoop=1;jettySize=auto;html=1;exitX=1;exitY=0.5;exitDx=0;exitDy=0;entryX=0;entryY=0.5;entryDx=0;entryDy=0;strokeColor=#CCE5FF;startArrow=none;startFill=0;endArrow=classic;endFill=1;" parent="1" source="iAAvRlnv8EcnlrwnSIx1-47" target="21" edge="1">
                    <mxGeometry relative="1" as="geometry"/>
                </mxCell>
                <mxCell id="28" style="edgeStyle=orthogonalEdgeStyle;rounded=0;orthogonalLoop=1;jettySize=auto;html=1;exitX=1;exitY=0.5;exitDx=0;exitDy=0;entryX=1;entryY=0.5;entryDx=0;entryDy=0;startArrow=classic;startFill=1;endArrow=none;endFill=0;strokeColor=#CCE5FF;" parent="1" source="u9htjXkEXDedvNMwMcPZ-81" target="20" edge="1">
                    <mxGeometry relative="1" as="geometry"/>
                </mxCell>
                <mxCell id="30" style="edgeStyle=orthogonalEdgeStyle;rounded=0;orthogonalLoop=1;jettySize=auto;html=1;exitX=1;exitY=0.5;exitDx=0;exitDy=0;entryX=1;entryY=0.5;entryDx=0;entryDy=0;startArrow=classic;startFill=1;endArrow=none;endFill=0;strokeColor=#CCE5FF;" parent="1" source="u9htjXkEXDedvNMwMcPZ-84" target="21" edge="1">
                    <mxGeometry relative="1" as="geometry"/>
                </mxCell>
                <mxCell id="31" value="ä¿å­å ´æã®ãã¹" style="text;html=1;strokeColor=none;fillColor=none;align=center;verticalAlign=middle;whiteSpace=wrap;rounded=0;" parent="1" vertex="1">
                    <mxGeometry x="1390" y="910" width="160" height="20" as="geometry"/>
                </mxCell>
                <mxCell id="35" value="ãµã¼ãPC" style="shape=hexagon;perimeter=hexagonPerimeter2;whiteSpace=wrap;html=1;fixedSize=1;strokeColor=#CCE5FF;" parent="1" vertex="1">
                    <mxGeometry x="1240" y="710" width="120" height="80" as="geometry"/>
                </mxCell>
                <mxCell id="37" value="ç»åãã®ãã®ã®ä¿å­" style="text;html=1;strokeColor=none;fillColor=none;align=center;verticalAlign=middle;whiteSpace=wrap;rounded=0;" parent="1" vertex="1">
                    <mxGeometry x="1310" y="850" width="140" height="20" as="geometry"/>
                </mxCell>
            </root>
        </mxGraphModel>
    </diagram>
</mxfile>